<?xml version="1.0" encoding="utf-8"?>
<!-- Generator: Adobe Illustrator 16.0.0, SVG Export Plug-In . SVG Version: 6.00 Build 0)  -->
<svg version="1.2" baseProfile="tiny" id="Layer_1" xmlns="http://www.w3.org/2000/svg" xmlns:xlink="http://www.w3.org/1999/xlink"
	 x="0px" y="0px" width="241px" height="111.167px" viewBox="-1.573 -1.946 241 111.167" xml:space="preserve">
<path fill="#DB2734" d="M0,49.971c0.267-1.769,0.528-3.509,0.969-5.231c0.36-1.43,0.662-2.871,1.039-4.292
	c0.304-1.146,0.813-1.376,1.92-0.876c4.54,2.063,9.068,4.156,13.617,6.212c0.825,0.375,1.028,0.904,0.831,1.766
	c-1.115,4.946-1.112,9.906-0.015,14.854c0.197,0.89-0.051,1.374-0.911,1.692c-4.688,1.721-9.355,3.474-14.031,5.216
	c-0.916,0.343-1.464,0.076-1.728-0.915c-0.664-2.496-1.087-5.036-1.424-7.595C0.234,60.548-0.404,52.65,0,49.971z"/>
<path fill="#DB2734" d="M22.421,107.109c-0.482-0.653-0.44-1.259-0.085-2.015c4.714-10.036,9.387-20.081,14.078-30.123
	c0.203-0.433,0.281-0.987,0.829-1.155c0.962-0.291,1.295,0.325,1.573,1.09c2.405,6.651,4.827,13.298,7.246,19.943
	c0.253,0.688,0.465,1.399,0.764,2.07c0.456,1.028,0.127,1.586-0.907,1.954c-4.854,1.738-9.699,3.493-14.526,5.29
	c-2.588,0.96-5.252,1.724-7.739,2.944L22.421,107.109L22.421,107.109z"/>
<path fill="#36B44B" d="M214.102,0.221c0.493,0.604,0.496,1.183,0.155,1.908c-4.765,10.155-9.5,20.321-14.238,30.488
	c-0.233,0.499-0.47,0.977-1.124,0.975c-0.724-0.003-0.932-0.526-1.141-1.092c-2.67-7.352-5.352-14.703-8.023-22.052
	c-0.457-1.264-0.291-1.566,1.084-2.065c6.995-2.548,14.002-5.087,21-7.639c0.367-0.135,0.807-0.138,1.055-0.522L214.102,0.221
	L214.102,0.221z"/>
<path fill="#36B44B" d="M190.229,88.162c-0.24-1.051,0.313-1.487,1.318-1.729c12.172-2.946,20.513-10.313,25.208-21.871
	c0.51-1.253,0.82-1.428,2.019-0.885c4.439,2.018,8.857,4.069,13.308,6.063c1.222,0.549,1.066,1.318,0.652,2.292
	c-6.276,14.738-16.932,24.806-32.049,30.124c-2.438,0.857-4.957,1.444-7.494,1.908c-1.166,0.22-1.61-0.1-1.715-1.279
	C191.054,97.929,190.645,93.068,190.229,88.162"/>
<path fill="#DB2734" d="M46.276,19.134c0.231,1.057-0.267,1.504-1.232,1.738c-12.22,2.937-20.593,10.323-25.299,21.934
	c-0.499,1.229-0.812,1.385-2.033,0.83c-4.366-1.979-8.719-3.972-13.073-5.968c-1.321-0.604-1.45-0.925-0.884-2.287
	C8.641,23.625,16.642,14.664,27.853,8.597c4.833-2.616,9.98-4.34,15.383-5.326c1.278-0.233,1.682,0.026,1.797,1.31
	C45.46,9.44,45.865,14.302,46.276,19.134"/>
<path fill="#FFFFFF" d="M180.392,42.388c3.638-3.532,7.765-4.848,12.474-4.097c4.581,0.734,7.013,3.652,7.055,8.469
	c0.066,6.689,0.003,13.38,0.037,20.068c0.006,0.806-0.271,0.953-0.991,0.936c-1.89-0.046-3.777-0.06-5.664,0.003
	c-0.823,0.027-1.031-0.224-1.025-1.025c0.034-5.131,0.018-10.263,0.018-15.392c0-0.247-0.008-0.493,0.003-0.737
	c0.186-5.458-3.458-6.165-7.19-5.453c-1.567,0.301-2.85,1.205-3.993,2.303c-0.529,0.509-0.746,1.08-0.743,1.849
	c0.039,5.785,0.002,11.567,0.039,17.36c0.006,0.828-0.152,1.134-1.054,1.099c-1.923-0.074-3.858-0.056-5.785-0.006
	c-0.71,0.019-0.878-0.203-0.878-0.891c0.022-12.31,0.028-24.622-0.006-36.937c0-0.809,0.256-0.938,0.976-0.917
	c1.887,0.044,3.775,0.059,5.661-0.006c0.847-0.031,1.106,0.169,1.089,1.057C180.358,34.085,180.392,38.098,180.392,42.388"/>
<path fill="#FFFFFF" d="M127.255,55.763c-3.239,0-6.483,0.026-9.729-0.017c-0.9-0.01-1.132,0.175-0.842,1.107
	c0.91,2.96,3.47,5.12,6.639,5.423c3.098,0.296,5.947-0.43,8.46-2.275c0.579-0.425,0.808-0.404,1.183,0.191
	c0.761,1.216,1.577,2.396,2.423,3.547c0.405,0.552,0.354,0.851-0.192,1.271c-2.832,2.176-6.104,3.147-9.59,3.396
	c-5.036,0.363-9.719-0.681-13.228-4.563c-4.374-4.847-5.086-10.559-2.796-16.509c2.228-5.792,6.742-8.834,12.918-9.183
	c8.236-0.467,14.438,4.994,15.25,13.233c0.111,1.144,0.155,2.286,0.203,3.433c0.03,0.778-0.229,0.972-0.975,0.963
	C133.738,55.745,130.496,55.763,127.255,55.763 M123.3,50.504c1.966,0,3.935,0,5.898,0c1.37,0,1.413-0.058,1.062-1.347
	c-0.848-3.129-3.636-5.105-7.015-4.966c-3.465,0.141-6.096,2.321-6.766,5.503c-0.158,0.729,0.037,0.828,0.683,0.819
	C119.208,50.485,121.256,50.504,123.3,50.504"/>
<path fill="#FFFFFF" d="M97.617,29.036c4.965,0,9.93,0.02,14.891-0.018c0.831-0.013,1.136,0.144,1.096,1.045
	c-0.082,1.799-0.066,3.61-0.008,5.412c0.034,0.843-0.178,1.114-1.062,1.102c-3.118-0.057-6.238,0.027-9.355-0.054
	c-1.067-0.031-1.245,0.315-1.239,1.296c0.037,9.558,0.005,19.117,0.048,28.671c0.003,1.023-0.242,1.324-1.271,1.283
	c-2.05-0.082-4.106-0.077-6.154-0.002c-0.938,0.031-1.219-0.195-1.216-1.185c0.045-9.559,0.008-19.114,0.056-28.673
	c0.007-1.107-0.262-1.421-1.383-1.39c-3.078,0.081-6.156-0.01-9.23,0.054c-0.96,0.021-1.175-0.279-1.139-1.18
	c0.068-1.765,0.065-3.529,0-5.29c-0.029-0.848,0.192-1.104,1.07-1.092C87.687,29.058,92.648,29.036,97.617,29.036"/>
<path fill="#FFFFFF" d="M163.686,48.03c-2.158-2.864-5.021-3.664-8.328-2.796c-4.153,1.09-6.373,5.365-5.379,10.083
	c0.646,3.061,2.338,5.218,5.428,6.026c3.019,0.79,5.693,0.133,7.789-2.28c0.402-0.464,0.604-0.452,1.022-0.044
	c1.264,1.23,2.551,2.441,3.88,3.596c0.564,0.484,0.46,0.79,0.046,1.28c-2.242,2.627-5.137,4.042-8.52,4.415
	c-5.813,0.643-11.028-0.669-14.67-5.545c-3.787-5.065-4.148-10.728-1.563-16.394c2.458-5.398,7.046-7.896,12.854-8.229
	c4.397-0.247,8.36,0.813,11.555,4.086c0.763,0.777,0.862,1.26-0.045,2.014C166.347,45.417,165.06,46.739,163.686,48.03"/>
<path fill="#FFFFFF" d="M54.433,53.135c0-2.423,0.155-4.635-0.04-6.813c-0.239-2.627-2.56-4.688-5.5-5.202
	c-3.996-0.699-7.491,0.307-10.321,3.244c-0.71,0.732-1.109,0.699-1.6-0.111c-0.146-0.247-0.334-0.471-0.535-0.671
	c-0.417-0.414-0.422-0.712,0.029-1.18c3.854-4.024,10.639-5.541,15.808-3.445c3.365,1.363,5.292,3.898,5.356,7.529
	c0.115,6.849,0.048,13.701,0.076,20.553c0.003,0.498-0.099,0.691-0.665,0.729c-2.521,0.156-2.519,0.182-2.554-2.305
	c-0.003-0.23,0-0.461,0-0.948c-1.879,1.827-3.821,3.061-6.143,3.56c-4.2,0.9-8.136,0.481-11.26-2.787
	c-2.622-2.745-3.075-6.118-1.991-9.618c1.082-3.476,3.687-5.483,7.182-6.162C46.812,48.622,50.892,49.65,54.433,53.135
	 M54.487,58.924c0-0.656-0.068-1.319,0.017-1.963c0.141-1.06-0.301-1.791-1.072-2.439c-2.916-2.454-6.264-3.307-9.967-2.503
	c-3.353,0.724-5.542,3.563-5.518,6.896c0.021,3.28,2.223,6.03,5.523,6.768c3.095,0.689,6.004,0.141,8.71-1.513
	c1.603-0.978,2.721-2.196,2.314-4.267C54.433,59.588,54.487,59.25,54.487,58.924"/>
<path fill="#36B44B" d="M213.728,9.308c0.501-0.057,0.817,0.223,1.149,0.461c3.867,2.811,7.276,6.098,10.279,9.813
	c0.642,0.802,0.598,1.421-0.157,2.114c-3.619,3.323-7.218,6.666-10.814,10.02c-0.76,0.71-1.408,0.732-2.042-0.141
	c-1.572-2.161-3.368-4.125-5.429-5.831c-0.696-0.577-0.76-1.142-0.389-1.926c2.148-4.547,4.269-9.106,6.4-13.663
	C212.939,9.695,213.138,9.234,213.728,9.308"/>
<path fill="#DB2734" d="M22.767,98.029c-0.468,0.053-0.783-0.227-1.116-0.466c-3.83-2.791-7.215-6.043-10.202-9.722
	c-0.717-0.885-0.68-1.505,0.181-2.283c3.57-3.257,7.091-6.57,10.637-9.855c0.975-0.904,1.399-0.866,2.183,0.167
	c1.565,2.067,3.295,3.977,5.282,5.637c0.707,0.587,0.889,1.146,0.479,2.012c-2.137,4.509-4.229,9.038-6.342,13.557
	C23.643,97.552,23.443,98.089,22.767,98.029"/>
<path fill="#FFFFFF" d="M64.695,61.543c2.828,3.109,6.333,4.5,10.472,4.176c2.23-0.175,4.27-0.858,5.636-2.802
	c1.749-2.48,1.083-5.334-1.578-6.767c-2.413-1.302-5.1-1.735-7.702-2.451c-1.38-0.384-2.731-0.833-4.039-1.43
	c-5.537-2.526-4.823-9.438-0.828-12.192c4.689-3.235,13.203-2.404,17.08,1.747c0.375,0.408,0.471,0.675,0.063,1.119
	c-0.474,0.5-0.868,1.077-1.33,1.662c-3.101-3.477-6.959-4.333-11.308-3.488c-1.36,0.264-2.537,0.922-3.453,1.988
	c-1.83,2.136-1.353,4.863,1.112,6.213c1.817,0.994,3.842,1.373,5.818,1.886c1.98,0.521,3.96,1.013,5.81,1.921
	c2.782,1.364,4.402,3.517,4.416,6.668c0.018,3.115-1.304,5.54-4.029,7.12c-4.993,2.887-13.214,1.774-17.32-2.271
	c-0.591-0.58-0.684-0.951-0.087-1.545C63.887,62.642,64.253,62.092,64.695,61.543"/>
<path fill="#36B44B" d="M233.593,35.019c0.014,0.671-0.321,0.977-0.831,1.166c-4.756,1.764-9.51,3.531-14.267,5.299
	c-0.719,0.261-1.199,0.006-1.456-0.685c-0.698-1.888-1.501-3.719-2.473-5.483c-0.33-0.605-0.158-1.076,0.321-1.524
	c3.731-3.449,7.452-6.911,11.175-10.369c0.631-0.587,1.287-0.812,1.858,0.035c2.349,3.479,4.154,7.23,5.59,11.17
	C233.568,34.781,233.579,34.945,233.593,35.019"/>
<path fill="#DB2734" d="M18.331,65.968c0.721-0.067,1.053,0.233,1.238,0.758c0.646,1.816,1.448,3.563,2.369,5.255
	c0.328,0.596,0.224,1.086-0.267,1.541c-3.757,3.484-7.508,6.976-11.271,10.453c-0.721,0.671-1.38,0.585-1.93-0.266
	c-2.188-3.386-3.984-6.956-5.353-10.746c-0.3-0.819-0.094-1.348,0.718-1.647c4.715-1.76,9.432-3.518,14.151-5.269
	C18.137,65.987,18.303,65.973,18.331,65.968"/>
<path fill="#36B44B" d="M235.55,62.374c-0.374,1.423-0.665,2.865-1.042,4.289c-0.31,1.148-0.803,1.383-1.918,0.877
	c-4.579-2.078-9.15-4.185-13.727-6.268c-0.721-0.33-0.921-0.846-0.743-1.595c1.144-4.946,1.121-9.907,0.08-14.855
	c-0.19-0.882,0.095-1.34,0.853-1.619c4.712-1.755,9.429-3.504,14.149-5.249c0.948-0.352,1.443,0.036,1.687,0.985
	C235.534,41.442,237.762,53.554,235.55,62.374z"/>
<path fill="#DB2734" d="M22.421,106.885c-0.482-0.651-0.44-1.258-0.085-2.013c4.714-10.037,9.387-20.082,14.078-30.125
	c0.203-0.432,0.281-0.985,0.829-1.155c0.962-0.288,1.295,0.324,1.573,1.092c2.405,6.651,4.827,13.299,7.246,19.943
	c0.253,0.69,0.465,1.399,0.764,2.071c0.456,1.027,0.127,1.585-0.907,1.954c-4.854,1.736-9.699,3.492-14.526,5.289
	c-2.588,0.959-5.252,1.723-7.739,2.943H22.421z"/>
<path fill="#36B44B" d="M214.102,0c0.493,0.604,0.496,1.183,0.155,1.906c-4.765,10.155-9.5,20.321-14.238,30.488
	c-0.233,0.5-0.47,0.978-1.124,0.975c-0.724-0.003-0.932-0.526-1.141-1.092c-2.67-7.352-5.352-14.702-8.023-22.052
	c-0.457-1.265-0.291-1.566,1.084-2.064c6.995-2.549,14.002-5.089,21-7.64c0.367-0.136,0.807-0.139,1.055-0.521H214.102z"/>
<path fill="#36B44B" d="M190.229,87.939c-0.24-1.05,0.313-1.486,1.318-1.729c12.172-2.943,20.513-10.313,25.208-21.87
	c0.51-1.254,0.82-1.428,2.019-0.885c4.439,2.018,8.857,4.069,13.308,6.064c1.222,0.548,1.066,1.317,0.652,2.293
	c-6.276,14.735-16.932,24.806-32.049,30.122c-2.438,0.857-4.957,1.443-7.494,1.907c-1.166,0.221-1.61-0.097-1.715-1.276
	C191.054,97.706,190.645,92.844,190.229,87.939"/>
<path fill="#DB2734" d="M46.276,18.911c0.231,1.057-0.267,1.503-1.232,1.738c-12.22,2.938-20.593,10.325-25.299,21.933
	c-0.499,1.23-0.812,1.386-2.033,0.831c-4.366-1.977-8.719-3.972-13.073-5.968c-1.321-0.604-1.45-0.923-0.884-2.287
	C8.641,23.402,16.642,14.442,27.853,8.374c4.833-2.616,9.98-4.339,15.383-5.325c1.278-0.231,1.682,0.026,1.797,1.312
	C45.46,9.217,45.865,14.078,46.276,18.911"/>
<path fill="#FFFFFF" d="M180.392,42.165c3.638-3.532,7.765-4.847,12.474-4.096c4.581,0.736,7.013,3.652,7.055,8.47
	c0.066,6.688,0.003,13.378,0.037,20.067c0.006,0.806-0.271,0.953-0.991,0.935c-1.89-0.044-3.777-0.059-5.664,0.003
	c-0.823,0.029-1.031-0.223-1.025-1.024c0.034-5.131,0.018-10.265,0.018-15.393c0-0.247-0.008-0.492,0.003-0.736
	c0.186-5.457-3.458-6.165-7.19-5.451c-1.567,0.301-2.85,1.205-3.993,2.303c-0.529,0.506-0.746,1.079-0.743,1.848
	c0.039,5.783,0.002,11.568,0.039,17.359c0.006,0.828-0.152,1.134-1.054,1.098c-1.923-0.072-3.858-0.053-5.785-0.006
	c-0.71,0.021-0.878-0.202-0.878-0.889c0.022-12.311,0.028-24.623-0.006-36.938c0-0.806,0.256-0.935,0.976-0.916
	c1.887,0.045,3.775,0.059,5.661-0.006c0.847-0.028,1.106,0.17,1.089,1.058C180.358,33.862,180.392,37.875,180.392,42.165"/>
<path fill="#FFFFFF" d="M127.255,55.542c-3.239,0-6.483,0.025-9.729-0.017c-0.9-0.011-1.132,0.173-0.842,1.106
	c0.91,2.959,3.47,5.12,6.639,5.425c3.098,0.294,5.947-0.431,8.46-2.277c0.579-0.425,0.808-0.405,1.183,0.192
	c0.761,1.214,1.577,2.395,2.423,3.545c0.405,0.552,0.354,0.852-0.192,1.271c-2.832,2.177-6.104,3.148-9.59,3.396
	c-5.036,0.361-9.719-0.682-13.228-4.563c-4.374-4.847-5.086-10.558-2.796-16.509c2.228-5.794,6.742-8.835,12.918-9.186
	c8.236-0.467,14.438,4.994,15.25,13.234c0.111,1.142,0.155,2.287,0.203,3.432c0.03,0.778-0.229,0.973-0.975,0.964
	C133.738,55.522,130.496,55.542,127.255,55.542 M123.3,50.281c1.966,0,3.935,0,5.898,0c1.37,0,1.413-0.056,1.062-1.346
	c-0.848-3.129-3.636-5.105-7.015-4.964c-3.465,0.141-6.096,2.318-6.766,5.501c-0.158,0.73,0.037,0.827,0.683,0.819
	C119.208,50.26,121.256,50.281,123.3,50.281"/>
<path fill="#FFFFFF" d="M97.617,28.813c4.965,0,9.93,0.021,14.891-0.019c0.831-0.012,1.136,0.145,1.096,1.045
	c-0.082,1.801-0.066,3.611-0.008,5.414c0.034,0.843-0.178,1.116-1.062,1.102c-3.118-0.057-6.238,0.027-9.355-0.054
	c-1.067-0.031-1.245,0.314-1.239,1.295c0.037,9.559,0.005,19.116,0.048,28.672c0.003,1.022-0.242,1.321-1.271,1.28
	c-2.05-0.082-4.106-0.075-6.154-0.003c-0.938,0.034-1.219-0.192-1.216-1.183c0.045-9.559,0.008-19.114,0.056-28.672
	c0.007-1.109-0.262-1.422-1.383-1.391c-3.078,0.081-6.156-0.012-9.23,0.054c-0.96,0.021-1.175-0.279-1.139-1.181
	c0.068-1.763,0.065-3.528,0-5.289c-0.029-0.847,0.192-1.104,1.07-1.094C87.687,28.834,92.648,28.813,97.617,28.813"/>
<path fill="#FFFFFF" d="M163.686,47.807c-2.158-2.862-5.021-3.664-8.328-2.795c-4.153,1.089-6.373,5.363-5.379,10.081
	c0.646,3.063,2.338,5.219,5.428,6.027c3.019,0.792,5.693,0.132,7.789-2.281c0.402-0.462,0.604-0.45,1.022-0.042
	c1.264,1.232,2.551,2.441,3.88,3.597c0.564,0.484,0.46,0.789,0.046,1.278c-2.242,2.627-5.137,4.044-8.52,4.416
	c-5.813,0.644-11.028-0.67-14.67-5.546c-3.787-5.064-4.148-10.726-1.563-16.393c2.458-5.399,7.046-7.896,12.854-8.229
	c4.397-0.247,8.36,0.814,11.555,4.086c0.763,0.778,0.862,1.261-0.045,2.015C166.347,45.194,165.06,46.516,163.686,47.807"/>
<path fill="#FFFFFF" d="M54.433,52.914c0-2.425,0.155-4.635-0.04-6.814c-0.239-2.627-2.56-4.688-5.5-5.202
	c-3.996-0.699-7.491,0.308-10.321,3.244c-0.71,0.733-1.109,0.698-1.6-0.111c-0.146-0.246-0.334-0.47-0.535-0.669
	c-0.417-0.414-0.422-0.713,0.029-1.18c3.854-4.025,10.639-5.542,15.808-3.445c3.365,1.364,5.292,3.896,5.356,7.529
	c0.115,6.849,0.048,13.701,0.076,20.552c0.003,0.499-0.099,0.692-0.665,0.729c-2.521,0.158-2.519,0.184-2.554-2.305
	c-0.003-0.229,0-0.461,0-0.948c-1.879,1.829-3.821,3.063-6.143,3.56c-4.2,0.9-8.136,0.482-11.26-2.787
	c-2.622-2.744-3.075-6.118-1.991-9.618c1.082-3.476,3.687-5.484,7.182-6.162C46.812,48.4,50.892,49.427,54.433,52.914
	 M54.487,58.702c0-0.657-0.068-1.321,0.017-1.964c0.141-1.058-0.301-1.791-1.072-2.438c-2.916-2.456-6.264-3.308-9.967-2.503
	c-3.353,0.723-5.542,3.562-5.518,6.896c0.021,3.281,2.223,6.03,5.523,6.767c3.095,0.69,6.004,0.142,8.71-1.512
	c1.603-0.979,2.721-2.196,2.314-4.266C54.433,59.365,54.487,59.027,54.487,58.702"/>
<path fill="#36B44B" d="M213.728,9.084c0.501-0.056,0.817,0.224,1.149,0.462c3.867,2.812,7.276,6.097,10.279,9.814
	c0.642,0.8,0.598,1.419-0.157,2.112c-3.619,3.322-7.218,6.667-10.814,10.019c-0.76,0.711-1.408,0.733-2.042-0.14
	c-1.572-2.16-3.368-4.125-5.429-5.83c-0.696-0.577-0.76-1.144-0.389-1.928c2.148-4.548,4.269-9.106,6.4-13.662
	C212.939,9.474,213.138,9.01,213.728,9.084"/>
<path fill="#DB2734" d="M22.767,97.808c-0.468,0.051-0.783-0.229-1.116-0.47c-3.83-2.789-7.215-6.042-10.202-9.72
	c-0.717-0.884-0.68-1.504,0.181-2.284c3.57-3.256,7.091-6.57,10.637-9.854c0.975-0.903,1.399-0.866,2.183,0.167
	c1.565,2.066,3.295,3.977,5.282,5.638c0.707,0.586,0.889,1.145,0.479,2.01c-2.137,4.51-4.229,9.039-6.342,13.56
	C23.643,97.332,23.443,97.867,22.767,97.808"/>
<path fill="#FFFFFF" d="M64.695,61.32c2.828,3.109,6.333,4.5,10.472,4.178c2.23-0.176,4.27-0.859,5.636-2.804
	c1.749-2.481,1.083-5.334-1.578-6.768c-2.413-1.301-5.1-1.734-7.702-2.449c-1.38-0.387-2.731-0.833-4.039-1.432
	c-5.537-2.525-4.823-9.437-0.828-12.191c4.689-3.235,13.203-2.404,17.08,1.747c0.375,0.407,0.471,0.675,0.063,1.118
	c-0.474,0.503-0.868,1.077-1.33,1.662c-3.101-3.476-6.959-4.332-11.308-3.487c-1.36,0.266-2.537,0.922-3.453,1.988
	c-1.83,2.137-1.353,4.863,1.112,6.214c1.817,0.991,3.842,1.37,5.818,1.886c1.98,0.519,3.96,1.012,5.81,1.921
	c2.782,1.362,4.402,3.514,4.416,6.667c0.018,3.115-1.304,5.54-4.029,7.121c-4.993,2.888-13.214,1.774-17.32-2.273
	c-0.591-0.579-0.684-0.951-0.087-1.546C63.887,62.418,64.253,61.869,64.695,61.32"/>
<path fill="#36B44B" d="M233.593,34.797c0.014,0.671-0.321,0.978-0.831,1.166c-4.756,1.764-9.51,3.531-14.267,5.298
	c-0.719,0.262-1.199,0.006-1.456-0.685c-0.698-1.888-1.501-3.716-2.473-5.484c-0.33-0.604-0.158-1.073,0.321-1.522
	c3.731-3.449,7.452-6.911,11.175-10.369c0.631-0.586,1.287-0.811,1.858,0.037c2.349,3.478,4.154,7.229,5.59,11.169
	C233.568,34.558,233.579,34.724,233.593,34.797"/>
<path fill="#DB2734" d="M18.331,65.745c0.721-0.067,1.053,0.235,1.238,0.757c0.646,1.817,1.448,3.565,2.369,5.255
	c0.328,0.598,0.224,1.087-0.267,1.541c-3.757,3.486-7.508,6.977-11.271,10.455c-0.721,0.669-1.38,0.584-1.93-0.266
	c-2.188-3.385-3.984-6.956-5.353-10.747c-0.3-0.819-0.094-1.346,0.718-1.646c4.715-1.762,9.432-3.519,14.151-5.27
	C18.137,65.765,18.303,65.75,18.331,65.745"/>
</svg>
