<?xml version="1.0" encoding="utf-8"?>
<!-- Generator: Adobe Illustrator 16.0.0, SVG Export Plug-In . SVG Version: 6.00 Build 0)  -->
<svg version="1.2" baseProfile="tiny" id="Layer_1" xmlns="http://www.w3.org/2000/svg" xmlns:xlink="http://www.w3.org/1999/xlink"
	 x="0px" y="0px" width="300px" height="300px" viewBox="0 0 300 300" xml:space="preserve">
<g id="New_Symbol_14">
	<g>
		<path fill-rule="evenodd" fill="#717272" d="M144.291,269.066c-1.523-0.304-3.04-0.657-4.573-0.902
			c-4.348-0.695-6.542-3.21-6.181-7.605c0.343-4.179,2.889-6.249,6.995-6.265c6.649-0.025,13.319,0.444,19.944,0.066
			c58.318-3.319,103.137-57.877,95.579-115.955c-3.866-29.711-17.723-53.466-41.504-71.541c-0.684-0.519-1.427-0.957-3.2-2.137
			c0.899,4.058,1.609,7.113,2.251,10.184c1.181,5.654-0.631,9.46-4.97,10.541c-4.203,1.048-7.396-1.588-8.814-7.454
			c-2.016-8.333-4.025-16.669-5.878-25.039c-1.396-6.305,0.421-9.17,6.741-10.667c9.023-2.135,18.034-4.411,27.168-5.923
			c2.344-0.388,6.057,1.198,7.424,3.106c1.195,1.667,0.595,5.333-0.395,7.602c-0.647,1.487-3.306,2.343-5.23,2.972
			c-3.066,1.003-6.273,1.581-10.041,2.487c4.955,4.158,9.534,7.633,13.693,11.553c20.357,19.185,32.66,42.593,36.467,70.385
			c0.14,1.018,0.566,1.996,0.859,2.993c0,9.125,0,18.248,0,27.373c-0.284,0.608-0.725,1.191-0.831,1.83
			c-8.262,49.574-36.6,81.904-84.154,97.418c-7.555,2.464-15.622,3.357-23.452,4.978
			C156.223,269.066,150.256,269.066,144.291,269.066z"/>
		<path fill-rule="evenodd" fill="#717272" d="M161.135,32.189c1.521,0.314,3.034,0.676,4.565,0.93
			c4.377,0.727,6.478,3.324,6.072,7.694c-0.389,4.2-3.059,6.043-7.11,6.176c-9.775,0.32-19.692-0.304-29.301,1.134
			c-44.727,6.699-80.499,43.861-85.838,88.681c-4.566,38.331,8.36,69.843,37.595,94.822c1.565,1.337,3.303,2.472,5.808,4.329
			c-1.009-4.775-1.869-8.48-2.562-12.217c-0.925-4.982,1.062-8.499,5.14-9.363c4-0.847,7.459,1.657,8.613,6.488
			c2.155,9.023,4.246,18.063,6.249,27.121c1.053,4.764-1.13,8.299-5.965,9.462c-9.02,2.167-18.071,4.209-27.14,6.154
			c-5.019,1.076-9.151-1.246-9.678-5.537c-0.564-4.601,1.981-7.152,6.357-8.131c3.069-0.687,6.116-1.477,9.903-2.397
			c-1.221-1.164-2.064-2.087-3.026-2.866c-38.622-31.345-54.018-72.001-43.25-120.148c10.851-48.514,42.901-78.127,91.251-89.833
			c4.731-1.146,9.609-1.68,14.419-2.499C149.204,32.189,155.17,32.189,161.135,32.189z"/>
		<path fill-rule="evenodd" fill="#717272" d="M153.278,102.523c19.635,0,39.269-0.019,58.902,0.009
			c7.779,0.01,9.867,2.153,9.872,10.056c0.016,25.419,0.018,50.838-0.002,76.257c-0.005,7.77-2.153,9.893-10.037,9.896
			c-39.269,0.016-78.536,0.015-117.805,0c-8.033-0.003-9.998-1.936-10.002-9.804c-0.017-25.594-0.018-51.189,0.001-76.783
			c0.006-7.628,1.982-9.611,9.642-9.621C113.66,102.505,133.469,102.523,153.278,102.523z M207.43,184.5c0-19.584,0-38.585,0-58.401
			c-1.494,1.263-2.413,1.993-3.28,2.78c-14.544,13.209-29.071,26.436-43.624,39.633c-6.35,5.759-8.609,5.764-15.109-0.129
			c-14.165-12.844-28.274-25.749-42.422-38.609c-1.301-1.183-2.72-2.235-4.459-3.653c0,20.03,0,39.082,0,58.378
			C134.943,184.5,171.005,184.5,207.43,184.5z M196.215,116.903c-29.191,0-57.194,0-86.32,0
			c14.876,13.537,28.944,26.34,43.188,39.301C167.395,143.164,181.428,130.376,196.215,116.903z"/>
	</g>
</g>
</svg>
