<?xml version="1.0" encoding="utf-8"?>
<!-- Generator: Adobe Illustrator 16.0.0, SVG Export Plug-In . SVG Version: 6.00 Build 0)  -->
<svg version="1.2" baseProfile="tiny" id="Layer_1" xmlns="http://www.w3.org/2000/svg" xmlns:xlink="http://www.w3.org/1999/xlink"
	 x="0px" y="0px" width="300px" height="300px" viewBox="0 0 300 300" xml:space="preserve">
<path fill="#44B026" d="M236.188,132.129h-71.114V61.021c0-8.317-6.749-15.067-15.071-15.067c-8.323,0-15.062,6.75-15.062,15.067
	v71.108H63.809c-8.317,0-15.067,6.749-15.067,15.066c0,8.329,6.75,15.073,15.067,15.073h71.131v71.131
	c0,8.328,6.738,15.066,15.062,15.066c8.322,0,15.071-6.738,15.071-15.066v-71.131h71.114c8.322,0,15.072-6.744,15.072-15.073
	C251.26,138.878,244.51,132.129,236.188,132.129z"/>
</svg>
