<?xml version="1.0" encoding="utf-8"?>
<!-- Generator: Adobe Illustrator 16.0.0, SVG Export Plug-In . SVG Version: 6.00 Build 0)  -->
<svg version="1.2" baseProfile="tiny" id="Layer_1" xmlns="http://www.w3.org/2000/svg" xmlns:xlink="http://www.w3.org/1999/xlink"
	 x="0px" y="0px" width="221px" height="227px" viewBox="0 0 221 227" xml:space="preserve">
<circle fill="#C65053" cx="109" cy="113.284" r="103.226"/>
<circle fill="#333533" cx="108.999" cy="113.284" r="99.043"/>
<circle fill="#333533" cx="109" cy="113.284" r="99.042"/>
<g>
	<path fill="none" d="M108.001,44.81C90.907,44.81,77,58.717,77,75.812V96.39h62.003V75.812
		C139.003,58.717,125.096,44.81,108.001,44.81z"/>
	<path fill="#737270" d="M77,75.812c0-17.095,13.907-31.002,31.002-31.002c17.094,0,31.001,13.907,31.001,31.002V96.39h11.844
		V75.812c0-23.625-19.221-42.846-42.845-42.846c-23.626,0-42.846,19.221-42.846,42.846V96.39H77V75.812z"/>
	<path fill="#F3CB30" d="M48.534,177.635c-0.093-0.085-0.185-0.171-0.271-0.264C48.35,177.464,48.44,177.55,48.534,177.635z"/>
	<path fill="#F3CB30" d="M49.91,178.509c-0.071-0.028-0.141-0.063-0.21-0.095C49.77,178.446,49.838,178.48,49.91,178.509z"/>
	<path fill="#F3CB30" d="M164.384,96.39h-13.537h-11.844H77H65.156H51.617c-2.536,0-4.592,2.057-4.592,4.593v73.271
		c0,1.022,0.345,1.957,0.91,2.72c-0.01-0.014-0.021-0.024-0.031-0.038c30.354-4.333,83.921-16.143,121.074-47.576v-28.376
		C168.978,98.446,166.921,96.39,164.384,96.39z M50.87,120.857v-15.778c0-3.025,2.476-5.501,5.501-5.501h18.308
		C54.511,99.578,51.287,114.157,50.87,120.857z M117.201,156.077H98.8l3.207-22.789c-2.474-1.835-4.084-4.77-4.084-8.088
		c0-5.565,4.511-10.078,10.078-10.078c5.565,0,10.077,4.513,10.077,10.078c0,3.318-1.609,6.253-4.084,8.088L117.201,156.077z"/>
	<path fill="#F3CB30" d="M49.205,178.145c-0.109-0.068-0.215-0.142-0.319-0.219C48.99,178.003,49.094,178.076,49.205,178.145z"/>
	<path fill="#F3CB30" d="M50.793,178.762c-0.058-0.011-0.115-0.02-0.172-0.032C50.678,178.742,50.735,178.751,50.793,178.762z"/>
	<path fill="#E9B52F" d="M47.935,176.973c0.103,0.139,0.212,0.271,0.329,0.398c0.086,0.093,0.178,0.179,0.271,0.264
		c0.112,0.104,0.23,0.199,0.352,0.291c0.104,0.077,0.209,0.15,0.319,0.219c0.159,0.1,0.324,0.189,0.496,0.27
		c0.069,0.032,0.139,0.066,0.21,0.095c0.229,0.093,0.466,0.166,0.711,0.221c0.057,0.013,0.114,0.021,0.172,0.032
		c0.268,0.049,0.541,0.083,0.824,0.083h112.767c2.537,0,4.594-2.056,4.594-4.592v-44.895
		c-37.152,31.434-90.719,43.243-121.074,47.576C47.914,176.948,47.925,176.959,47.935,176.973z"/>
	<path fill="#595A5B" d="M118.078,125.2c0-5.565-4.512-10.078-10.077-10.078c-5.567,0-10.078,4.513-10.078,10.078
		c0,3.318,1.61,6.253,4.084,8.088L98.8,156.077c0,0,13.657-3.859,15.194-22.789C116.469,131.453,118.078,128.519,118.078,125.2z"/>
	<path fill="#F7DB5E" d="M74.678,99.578H56.371c-3.025,0-5.501,2.476-5.501,5.501v15.778
		C51.287,114.157,54.511,99.578,74.678,99.578z"/>
	<path fill="#3F3E40" d="M98.8,156.077h18.401l-3.207-22.789C112.457,152.218,98.8,156.077,98.8,156.077z"/>
</g>
</svg>
