<?xml version="1.0" encoding="utf-8"?>
<!-- Generator: Adobe Illustrator 16.0.0, SVG Export Plug-In . SVG Version: 6.00 Build 0)  -->
<svg version="1.2" baseProfile="tiny" id="Layer_1" xmlns="http://www.w3.org/2000/svg" xmlns:xlink="http://www.w3.org/1999/xlink"
	 x="0px" y="0px" width="300px" height="300px" viewBox="0 0 300 300" xml:space="preserve">
<g id="New_Symbol_7">
	<g id="New_Symbol_7_1_">
	</g>
</g>
<path fill-rule="evenodd" fill="#286DB2" d="M58.43,109.161c0-7.459,0-14.113,0-20.777c0-15.638-0.032-31.276,0.022-46.915
	c0.021-5.912,1.457-7.523,6.904-7.534c45.34-0.026,90.681,0.027,136.029-0.004c4.936,0,6.904,2.134,6.744,7.085
	c-0.24,7.496-0.059,15.003-0.059,23.107c7.678,0,14.827-0.026,21.982,0.012c5.879,0.031,7.021,1.114,7.037,7.133
	c0.048,22.852-0.102,45.693,0.176,68.54c0.032,2.982,1.414,6.493,3.329,8.803c7.604,9.194,15.777,17.928,23.472,27.062
	c1.525,1.803,2.587,4.62,2.604,6.983c0.176,25.126,0.102,50.266,0.08,75.392c-0.006,7.175-1.152,8.36-8.143,8.36
	c-52.73,0-105.451,0.059-158.166-0.16c-2.7-0.011-6.152-1.665-7.966-3.688c-18.499-20.691-36.794-41.557-54.945-62.553
	c-1.772-2.044-3.079-5.244-3.105-7.928c-0.246-25.482-0.117-50.971-0.208-76.453c-0.016-4.68,1.873-6.713,6.637-6.52
	C46.437,109.331,52.049,109.161,58.43,109.161z M227.289,175.354c0-34.201,0-67.777,0-101.274c-43.715,0-86.996,0-130.39,0
	c-0.139,1.02-0.304,1.702-0.304,2.38c-0.027,30.737-0.047,61.464-0.043,92.192c0.005,4.802,2.498,6.792,7.289,6.759
	c15.1-0.127,30.205-0.1,45.304-0.025c5.794,0.032,7.123,1.483,7.17,7.191c0.032,3.789,0.005,7.576,0.005,11.375
	c16.199,0,31.576,0,47.46,0c0-3.436-0.016-6.557,0-9.677c0.017-8.058,0.891-8.906,9.166-8.921
	C217.646,175.342,222.348,175.354,227.289,175.354z M146.75,185.288c-14.961,0-29.399,0-43.912,0c0,23.896,0,47.367,0,71.244
	c1.735,0.134,3.266,0.352,4.797,0.352c48.282,0.017,96.573-0.032,144.859,0.112c4.247,0.017,4.851-1.654,4.823-5.293
	c-0.117-20.712-0.027-41.43-0.031-62.158c0-1.344-0.252-2.7-0.4-4.312c-14.582,0-28.871,0-43.522,0c0,4.407-0.096,8.43,0.021,12.438
	c0.123,4.214-1.788,6.065-6.002,6.044c-18.259-0.06-36.517-0.047-54.78,0.012c-4.3,0.016-5.991-2.034-5.874-6.157
	C146.839,193.568,146.75,189.571,146.75,185.288z M198.226,43.917c-0.938-0.223-1.429-0.432-1.931-0.432
	c-41.451-0.042-82.909-0.038-124.355-0.144c-3.462-0.011-3.985,1.559-3.975,4.503c0.085,29.334,0.048,58.669,0.112,88.004
	c0,1.51,0.091,3.436,0.96,4.471c5.592,6.622,11.413,13.04,18.115,20.628c0-3.33,0-5.192,0-7.064
	c0.021-27.399,0.021-54.801,0.042-82.199c0.006-6.547,1.03-7.544,7.673-7.544c28.625,0,57.254,0,85.885,0c5.74,0,11.482,0,17.474,0
	C198.226,57.107,198.226,50.672,198.226,43.917z M92.311,248.064c0.368-1.606,0.577-2.082,0.582-2.55
	c0.011-20.185,0.09-40.363-0.096-60.536c-0.016-2.001-1.243-4.349-2.615-5.923c-14.4-16.534-28.934-32.942-43.458-49.364
	c-0.613-0.693-1.424-1.216-2.96-2.497c0,14.812,0.981,28.694-0.252,42.385c-1.472,16.336,2.151,29.895,15.265,40.294
	c0.272,0.223,0.459,0.544,0.689,0.806C70.206,222.907,80.957,235.142,92.311,248.064z M250.882,174.989
	c-4.722-5.335-8.724-9.86-13.312-15.04c0,5.864,0,10.453,0,15.04C241.945,174.989,245.846,174.989,250.882,174.989z M58.19,128.166
	c0-3.896,0-6.43,0-9.29c-2.492,0-4.818,0-8.174,0C52.78,122.024,55.026,124.569,58.19,128.166z"/>
<path fill-rule="evenodd" fill="#286DB2" d="M162.11,92.636c12.987-0.01,25.978,0.027,38.97-0.027
	c3.414-0.016,6.76,0.363,6.814,4.616c0.068,4.556-3.484,5.036-7.055,5.026c-25.808-0.016-51.61-0.049-77.412-0.043
	c-3.602,0.012-7.166-0.378-7.07-4.94c0.096-4.632,3.789-4.669,7.304-4.648C136.479,92.668,149.293,92.636,162.11,92.636z"/>
<path fill-rule="evenodd" fill="#286DB2" d="M162.11,119.853c12.987,0.01,25.978,0.038,38.97-0.01
	c3.356-0.012,6.798,0.122,6.857,4.481c0.068,4.615-3.533,4.993-7.076,4.993c-25.627,0-51.263-0.004-76.89-0.021
	c-0.705,0-1.408,0-2.107-0.037c-3.148-0.159-5.646-1.285-5.57-4.872c0.079-3.606,2.603-4.572,5.788-4.566
	c12.641,0.031,25.28,0.025,37.919,0.031C160.707,119.853,161.411,119.853,162.11,119.853z"/>
<path fill-rule="evenodd" fill="#286DB2" d="M162.158,156.321c-12.987-0.007-25.974-0.026-38.96,0.005
	c-3.382,0.011-6.792-0.293-6.834-4.567c-0.064-4.54,3.521-5.026,7.069-5.026c25.616,0.006,51.237,0.021,76.858,0.032
	c0.875,0,2.043-0.33,2.577,0.102c1.841,1.478,3.452,3.228,5.144,4.871c-1.772,1.537-3.475,4.279-5.336,4.38
	c-8.393,0.481-16.828,0.204-25.253,0.204C172.332,156.321,167.248,156.321,162.158,156.321z"/>
</svg>
