<?xml version="1.0" encoding="utf-8"?>
<!-- Generator: Adobe Illustrator 16.0.0, SVG Export Plug-In . SVG Version: 6.00 Build 0)  -->
<svg version="1.2" baseProfile="tiny" id="Layer_1" xmlns="http://www.w3.org/2000/svg" xmlns:xlink="http://www.w3.org/1999/xlink"
	 x="0px" y="0px" width="300px" height="300px" viewBox="0 0 300 300" xml:space="preserve">
<g id="New_Symbol_7">
</g>
<path fill-rule="evenodd" fill="#D3CC28" d="M29.436,122.738c20.334-2.978,39.855-5.827,59.376-8.688
	c4.503-0.662,9.028-2.031,13.506-1.855c8.706,0.321,12.09-4.755,15.375-11.751c10.093-21.498,20.862-42.681,32.04-65.365
	c1.647,3.092,2.825,5.159,3.879,7.301c10.445,21.121,20.945,42.222,31.207,63.433c1.758,3.642,3.998,5.242,7.97,5.793
	c25.499,3.494,50.958,7.244,77.776,11.098c-2.352,2.547-4.018,4.532-5.872,6.335c-17.05,16.587-34.196,33.072-51.095,49.815
	c-1.599,1.582-2.657,4.854-2.299,7.08c4.193,25.955,8.697,51.855,13.334,78.988c-5.877-3.016-10.89-5.544-15.871-8.154
	c-17.864-9.415-35.785-18.739-53.538-28.374c-4.017-2.188-7.116-1.857-10.97,0.212c-21.287,11.418-42.698,22.627-64.087,33.87
	c-1.369,0.727-2.839,1.26-4.946,2.181c2.887-17.157,5.646-33.689,8.479-50.22c1.652-9.746,3.649-19.456,4.907-29.266
	c0.279-2.153-1.342-5.177-3.033-6.852c-17.333-17.146-34.864-34.093-52.316-51.12C32.053,126.022,31.052,124.634,29.436,122.738z"/>
<g id="New_Symbol_9">
</g>
</svg>
