<?xml version="1.0" encoding="utf-8"?>
<!-- Generator: Adobe Illustrator 16.0.0, SVG Export Plug-In . SVG Version: 6.00 Build 0)  -->
<svg version="1.2" baseProfile="tiny" id="Layer_1" xmlns="http://www.w3.org/2000/svg" xmlns:xlink="http://www.w3.org/1999/xlink"
	 x="0px" y="0px" width="300px" height="300px" viewBox="0 0 300 300" xml:space="preserve">
<g id="New_Symbol_7">
</g>
<path fill="#7D7D7C" d="M149.86,61.687c0.157,0.317,0.314,0.635,0.472,0.952c8.408,16.982,17.103,34.544,25.48,51.861
	c3.198,6.626,8.302,10.339,15.618,11.354c18.772,2.572,37.27,5.247,56.852,8.079c0.432,0.063,0.863,0.125,1.296,0.188
	c-2.087,2.023-4.174,4.047-6.261,6.07c-12.083,11.717-24.578,23.832-36.754,35.896c-3.899,3.858-6.012,10.347-5.137,15.782
	c3.175,19.649,6.479,38.993,9.965,59.322c-3.475-1.83-6.95-3.656-10.427-5.483c-13.47-7.078-27.398-14.396-40.957-21.755
	c-3.354-1.827-6.623-2.716-9.995-2.716c-3.426,0-6.856,0.948-10.485,2.896c-16.977,9.106-34.315,18.228-51.18,27.088
	c1.755-10.444,3.456-20.532,5.212-30.772c0.515-3.034,1.077-6.144,1.621-9.149c1.206-6.666,2.453-13.56,3.344-20.502
	c0.796-6.141-2.688-12.049-5.917-15.247c-12.393-12.258-25.079-24.604-37.349-36.542c-1.668-1.623-3.336-3.246-5.004-4.869
	c2.639-0.387,5.267-0.771,7.888-1.154c10.795-1.578,21.457-3.137,32.124-4.7c1.648-0.242,3.207-0.548,4.714-0.843
	c2.417-0.475,4.699-0.922,6.538-0.922c0.136,0,0.271,0.003,0.43,0.009c0.387,0.015,0.767,0.021,1.14,0.021
	c15.432,0,20.986-11.83,23.656-17.516c7.132-15.191,14.534-30.084,22.371-45.851C149.363,62.687,149.611,62.188,149.86,61.687
	 M149.732,39.42c-11.178,22.685-21.947,43.867-32.04,65.365c-3.187,6.786-6.465,11.766-14.604,11.766
	c-0.252,0-0.509-0.005-0.771-0.015c-0.267-0.011-0.532-0.016-0.8-0.016c-4.216,0-8.471,1.248-12.706,1.871
	c-19.521,2.86-39.042,5.71-59.376,8.688c1.616,1.896,2.617,3.284,3.822,4.461c17.452,17.027,34.983,33.974,52.316,51.12
	c1.691,1.675,3.313,4.698,3.033,6.852c-1.258,9.81-3.255,19.52-4.907,29.266c-2.834,16.53-5.593,33.063-8.479,50.22
	c2.107-0.921,3.577-1.454,4.946-2.181c21.389-11.243,42.8-22.452,64.087-33.87c2.049-1.101,3.885-1.709,5.759-1.709
	c1.65,0,3.33,0.473,5.211,1.497c17.753,9.635,35.674,18.959,53.538,28.374c4.981,2.61,9.994,5.139,15.871,8.154
	c-4.637-27.133-9.141-53.033-13.334-78.988c-0.358-2.226,0.7-5.498,2.299-7.08c16.898-16.743,34.045-33.229,51.095-49.815
	c1.854-1.803,3.521-3.788,5.872-6.335c-26.818-3.854-52.277-7.604-77.776-11.098c-3.972-0.551-6.212-2.151-7.97-5.793
	c-10.262-21.211-20.762-42.312-31.207-63.433C152.558,44.579,151.38,42.512,149.732,39.42L149.732,39.42z"/>
<g id="New_Symbol_9">
</g>
</svg>
