<?xml version="1.0" encoding="utf-8"?>
<!-- Generator: Adobe Illustrator 16.0.0, SVG Export Plug-In . SVG Version: 6.00 Build 0)  -->
<svg version="1.2" baseProfile="tiny" id="Layer_1" xmlns="http://www.w3.org/2000/svg" xmlns:xlink="http://www.w3.org/1999/xlink"
	 x="0px" y="0px" width="300px" height="300px" viewBox="0 0 300 300" xml:space="preserve">
<g id="New_Symbol_7">
</g>
<g id="New_Symbol_11">
</g>
<g id="New_Symbol_16">
</g>
<g id="New_Symbol_15">
</g>
<g id="New_Symbol_8">
</g>
<g id="New_Symbol_5">
</g>
<g id="New_Symbol_10">
</g>
<g id="New_Symbol_13">
</g>
<g>
	<path fill-rule="evenodd" fill="#FFFFFF" d="M65.469,232.684c-4.332-1.563-8.53-2.691-12.373-4.563
		c-20.594-10.058-33.116-26.459-33.766-49.484c-0.938-33.25-1.279-66.574,0.053-99.795C20.652,47.329,44.928,24.62,76.44,24.229
		c46.912-0.559,93.84-0.559,140.74,0c31.518,0.401,55.837,23.079,57.02,54.634c1.301,34.252,1.062,68.629-0.31,102.875
		c-1.123,28.194-27.206,51.244-55.543,51.532c-20.672,0.191-41.348-0.118-62.006,0.201c-3.645,0.055-7.741,1.253-10.79,3.229
		c-20.259,13.14-40.326,26.567-60.361,40.044c-4.507,3.038-8.983,4.24-13.854,1.497c-4.619-2.617-6.01-6.884-5.931-12.064
		C65.593,255.03,65.469,243.887,65.469,232.684z M88.579,246.675c16.763-11.171,31.991-21.74,47.706-31.544
		c4.45-2.782,10.258-4.571,15.501-4.704c20.863-0.54,41.764-0.124,62.65-0.251c22.7-0.148,37.139-14.729,37.166-37.341
		c0.026-29.563,0.043-59.136,0-88.709c-0.031-22.036-14.956-36.931-36.989-36.951c-45.084-0.027-90.163-0.018-135.241,0
		c-22.507,0.021-37.347,14.79-37.374,37.186c-0.031,29.365-0.031,58.72,0,88.09c0.027,21.72,12.181,35.264,33.697,37.666
		c9.558,1.071,12.724,4.43,12.863,13.958C88.659,231.074,88.579,238.086,88.579,246.675z"/>
</g>
<g id="New_Symbol_12">
</g>
<g>
	<path fill="#DB2734" d="M64.706,121.452c0.787-2.354,0.744-4.848,1.345-7.229c0.494-1.962,0.909-3.972,1.43-5.949
		c0.425-1.573,1.127-1.894,2.647-1.201c6.284,2.854,12.547,5.762,18.831,8.592c1.148,0.51,1.425,1.244,1.154,2.444
		c-1.548,6.826-1.537,13.696-0.017,20.522c0.266,1.222-0.063,1.913-1.265,2.35c-6.476,2.381-12.93,4.8-19.395,7.203
		c-1.271,0.475-2.03,0.111-2.381-1.259c-0.925-3.445-1.515-6.96-1.967-10.507c-0.053-0.354,0.154-0.823-0.383-0.994V121.452z"/>
	<path fill="#36B44B" d="M228.951,131.672c-0.871,2.328-0.701,4.844-1.339,7.224c-0.517,1.974-0.915,3.978-1.446,5.934
		c-0.42,1.589-1.096,1.914-2.648,1.219c-6.325-2.877-12.642-5.774-18.979-8.672c-0.988-0.446-1.275-1.165-1.021-2.195
		c1.574-6.849,1.558-13.701,0.112-20.549c-0.262-1.218,0.127-1.84,1.181-2.233c6.501-2.413,13.041-4.838,19.549-7.256
		c1.317-0.489,2.003,0.059,2.338,1.366c0.884,3.455,1.506,6.964,1.914,10.505c0.043,0.362-0.16,0.84,0.34,1.037V131.672z"/>
	<path fill="#DB2734" d="M95.706,200.438c-0.67-0.897-0.612-1.743-0.123-2.774c6.518-13.865,12.994-27.763,19.468-41.66
		c0.267-0.595,0.384-1.35,1.144-1.59c1.334-0.398,1.781,0.447,2.174,1.5c3.328,9.192,6.672,18.39,10.011,27.587
		c0.356,0.951,0.644,1.925,1.069,2.851c0.627,1.424,0.16,2.189-1.255,2.716c-6.709,2.403-13.414,4.822-20.091,7.3
		c-3.578,1.329-7.257,2.382-10.691,4.071H95.706z"/>
	<path fill="#36B44B" d="M197.967,52.68c0.671,0.823,0.671,1.627,0.202,2.626c-6.58,14.058-13.132,28.108-19.681,42.159
		c-0.319,0.675-0.644,1.351-1.547,1.351c-1.006-0.016-1.309-0.749-1.585-1.515c-3.689-10.172-7.395-20.325-11.085-30.49
		c-0.644-1.749-0.409-2.164,1.488-2.859c9.677-3.521,19.363-7.034,29.034-10.56c0.516-0.187,1.121-0.187,1.467-0.712H197.967z"/>
	<path fill="#36B44B" d="M164.953,174.245c-0.319-1.446,0.436-2.046,1.829-2.403c16.83-4.066,28.356-14.241,34.854-30.224
		c0.702-1.728,1.132-1.968,2.786-1.224c6.135,2.798,12.249,5.631,18.395,8.391c1.701,0.75,1.467,1.817,0.903,3.151
		c-8.676,20.379-23.402,34.298-44.308,41.656c-3.359,1.18-6.857,1.988-10.355,2.646c-1.616,0.299-2.232-0.132-2.371-1.764
		C166.101,187.754,165.527,181.019,164.953,174.245"/>
	<path fill="#DB2734" d="M128.684,78.815c0.319,1.462-0.377,2.083-1.701,2.402c-16.896,4.073-28.464,14.28-34.972,30.32
		c-0.702,1.711-1.138,1.935-2.829,1.143c-6.023-2.737-12.042-5.476-18.065-8.256c-1.818-0.824-1.999-1.271-1.212-3.147
		c6.741-16.241,17.81-28.635,33.302-37.02c6.688-3.625,13.802-6.007,21.276-7.378c1.765-0.319,2.318,0.037,2.478,1.822
		C127.557,65.418,128.13,72.138,128.684,78.815"/>
	<path fill="#36B44B" d="M197.436,65.231c0.702-0.075,1.139,0.303,1.596,0.638c5.343,3.887,10.058,8.427,14.205,13.563
		c0.894,1.11,0.829,1.973-0.213,2.93c-4.992,4.599-9.983,9.219-14.96,13.844c-1.042,0.978-1.931,1.016-2.818-0.181
		c-2.168-3.004-4.646-5.71-7.485-8.07c-0.979-0.792-1.063-1.573-0.553-2.663c2.977-6.289,5.896-12.59,8.847-18.88
		C196.351,65.774,196.633,65.136,197.436,65.231"/>
	<path fill="#DB2734" d="M96.179,187.888c-0.654,0.074-1.084-0.303-1.531-0.638c-5.295-3.865-9.984-8.374-14.099-13.436
		c-1-1.223-0.952-2.084,0.233-3.169c4.939-4.508,9.799-9.08,14.706-13.625c1.345-1.24,1.946-1.196,3.009,0.245
		c2.18,2.854,4.572,5.497,7.32,7.788c0.968,0.808,1.218,1.572,0.654,2.774c-2.95,6.231-5.842,12.493-8.767,18.746
		C97.391,187.25,97.125,187.962,96.179,187.888"/>
	<path fill="#36B44B" d="M224.911,100.767c0.01,0.936-0.457,1.372-1.148,1.637c-6.592,2.42-13.147,4.86-19.734,7.317
		c-0.988,0.35-1.659,0-1.999-0.958c-0.979-2.595-2.085-5.126-3.424-7.581c-0.452-0.83-0.219-1.483,0.447-2.105
		c5.15-4.78,10.292-9.543,15.449-14.334c0.871-0.802,1.765-1.121,2.567,0.06c3.249,4.806,5.736,9.983,7.73,15.423
		C224.873,100.447,224.879,100.677,224.911,100.767"/>
	<path fill="#DB2734" d="M90.049,143.564c1.005-0.085,1.452,0.319,1.718,1.053c0.893,2.515,1.999,4.918,3.269,7.263
		c0.452,0.828,0.314,1.499-0.367,2.12c-5.194,4.822-10.372,9.649-15.587,14.467c-0.989,0.92-1.904,0.808-2.653-0.372
		c-3.036-4.679-5.524-9.624-7.417-14.866c-0.404-1.126-0.117-1.854,1-2.27c6.518-2.419,13.046-4.854,19.543-7.278
		C89.783,143.606,90.001,143.564,90.049,143.564"/>
</g>
</svg>
