<?xml version="1.0" encoding="utf-8"?>
<!-- Generator: Adobe Illustrator 16.0.0, SVG Export Plug-In . SVG Version: 6.00 Build 0)  -->
<svg version="1.2" baseProfile="tiny" id="Layer_1" xmlns="http://www.w3.org/2000/svg" xmlns:xlink="http://www.w3.org/1999/xlink"
	 x="0px" y="0px" width="72.952px" height="72.785px" viewBox="0 0 72.952 72.785" xml:space="preserve">
<g>
	<path fill-rule="evenodd" fill="#FFFFFF" d="M13.355,59.395c-1.231-0.444-2.427-0.766-3.519-1.298
		c-5.854-2.86-9.416-7.524-9.601-14.071c-0.267-9.454-0.365-18.93,0.015-28.377C0.61,6.687,7.515,0.229,16.475,0.12
		c13.34-0.16,26.684-0.16,40.021,0c8.961,0.113,15.876,6.562,16.214,15.534c0.369,9.741,0.301,19.516-0.088,29.254
		c-0.32,8.016-7.736,14.571-15.795,14.651c-5.878,0.056-11.757-0.032-17.631,0.059c-1.037,0.016-2.202,0.356-3.068,0.918
		c-5.76,3.737-11.467,7.556-17.163,11.387c-1.282,0.863-2.557,1.206-3.94,0.426c-1.313-0.744-1.708-1.958-1.687-3.431
		C13.39,65.749,13.355,62.58,13.355,59.395z M19.927,63.373c4.766-3.178,9.098-6.183,13.565-8.971
		c1.266-0.789,2.916-1.299,4.408-1.337c5.935-0.152,11.875-0.034,17.814-0.072c6.454-0.041,10.562-4.187,10.569-10.617
		c0.008-8.407,0.012-16.815,0-25.225c-0.01-6.267-4.254-10.501-10.519-10.507c-12.819-0.007-25.638-0.005-38.455,0
		C10.909,6.65,6.688,10.85,6.682,17.219c-0.01,8.35-0.01,16.697,0,25.047c0.007,6.177,3.463,10.027,9.581,10.712
		c2.719,0.305,3.618,1.259,3.658,3.968C19.949,58.938,19.927,60.932,19.927,63.373z"/>
	<g>
		<path fill="#FFFFFF" d="M13.07,27.699c0.224-0.67,0.212-1.383,0.384-2.062c0.143-0.558,0.259-1.13,0.406-1.694
			c0.123-0.449,0.323-0.54,0.756-0.342c1.791,0.812,3.575,1.641,5.368,2.448c0.325,0.144,0.404,0.354,0.327,0.695
			c-0.441,1.946-0.438,3.903-0.005,5.851c0.075,0.348-0.019,0.545-0.36,0.668c-1.845,0.679-3.684,1.37-5.527,2.053
			c-0.359,0.134-0.578,0.033-0.679-0.357c-0.263-0.981-0.431-1.984-0.562-2.995c-0.015-0.102,0.045-0.235-0.108-0.283V27.699z"/>
		<path fill="#FFFFFF" d="M59.881,30.611c-0.249,0.663-0.2,1.38-0.384,2.059c-0.146,0.562-0.259,1.133-0.41,1.689
			c-0.121,0.456-0.313,0.545-0.754,0.348c-1.806-0.817-3.605-1.644-5.408-2.471c-0.285-0.127-0.366-0.331-0.292-0.625
			c0.447-1.952,0.441-3.904,0.03-5.856c-0.073-0.347,0.036-0.523,0.339-0.636c1.852-0.689,3.717-1.38,5.568-2.07
			c0.376-0.139,0.572,0.017,0.668,0.391c0.251,0.984,0.428,1.984,0.545,2.994c0.011,0.102-0.045,0.238,0.098,0.294V30.611z"/>
		<path fill="#FFFFFF" d="M21.906,50.21c-0.191-0.257-0.175-0.498-0.036-0.792c1.859-3.951,3.704-7.911,5.549-11.871
			c0.077-0.171,0.11-0.385,0.326-0.454c0.379-0.112,0.507,0.128,0.62,0.427c0.949,2.621,1.9,5.242,2.854,7.863
			c0.101,0.271,0.183,0.549,0.304,0.811c0.179,0.406,0.045,0.627-0.358,0.775c-1.911,0.686-3.822,1.375-5.723,2.081
			c-1.023,0.38-2.07,0.679-3.05,1.16H21.906z"/>
		<path fill="#FFFFFF" d="M51.049,8.099c0.192,0.235,0.192,0.465,0.06,0.748c-1.877,4.006-3.744,8.012-5.61,12.016
			c-0.09,0.193-0.184,0.385-0.441,0.385c-0.286-0.006-0.37-0.215-0.451-0.433c-1.053-2.898-2.107-5.792-3.157-8.689
			c-0.186-0.498-0.118-0.616,0.422-0.813c2.759-1.006,5.518-2.006,8.275-3.011c0.147-0.054,0.319-0.054,0.418-0.203H51.049z"/>
		<path fill="#FFFFFF" d="M41.641,42.744c-0.092-0.412,0.125-0.582,0.521-0.685c4.797-1.159,8.081-4.058,9.933-8.614
			c0.2-0.491,0.324-0.562,0.794-0.348c1.75,0.796,3.492,1.604,5.243,2.39c0.484,0.214,0.421,0.518,0.257,0.899
			c-2.47,5.808-6.668,9.775-12.625,11.871c-0.96,0.336-1.955,0.566-2.953,0.754c-0.461,0.085-0.634-0.037-0.676-0.502
			C41.966,46.595,41.807,44.675,41.641,42.744"/>
		<path fill="#FFFFFF" d="M31.303,15.548c0.092,0.417-0.105,0.593-0.484,0.684c-4.814,1.161-8.111,4.07-9.967,8.642
			c-0.198,0.487-0.322,0.551-0.805,0.326c-1.717-0.78-3.433-1.562-5.149-2.353c-0.519-0.235-0.568-0.363-0.345-0.898
			c1.923-4.628,5.074-8.16,9.491-10.551c1.906-1.031,3.933-1.711,6.063-2.102c0.505-0.091,0.66,0.011,0.709,0.52
			C30.982,11.729,31.146,13.644,31.303,15.548"/>
		<path fill="#FFFFFF" d="M50.899,11.677c0.197-0.022,0.324,0.084,0.455,0.182c1.521,1.106,2.865,2.4,4.048,3.866
			c0.254,0.314,0.234,0.561-0.063,0.834c-1.422,1.31-2.844,2.625-4.264,3.946c-0.293,0.277-0.55,0.288-0.804-0.054
			c-0.617-0.855-1.323-1.625-2.133-2.299c-0.278-0.225-0.302-0.45-0.157-0.76c0.852-1.792,1.683-3.589,2.521-5.38
			C50.59,11.831,50.669,11.649,50.899,11.677"/>
		<path fill="#FFFFFF" d="M22.041,46.633c-0.188,0.021-0.31-0.087-0.438-0.182c-1.508-1.102-2.845-2.385-4.019-3.83
			c-0.282-0.347-0.271-0.592,0.066-0.902c1.409-1.284,2.795-2.588,4.193-3.883c0.382-0.354,0.553-0.343,0.856,0.069
			c0.622,0.813,1.304,1.566,2.086,2.219c0.275,0.23,0.348,0.449,0.188,0.793c-0.843,1.774-1.666,3.561-2.5,5.341
			C22.387,46.451,22.31,46.654,22.041,46.633"/>
		<path fill="#FFFFFF" d="M58.729,21.804c0.006,0.268-0.13,0.391-0.327,0.466c-1.875,0.689-3.747,1.385-5.623,2.085
			c-0.282,0.103-0.474,0-0.572-0.272c-0.277-0.738-0.592-1.46-0.976-2.161c-0.128-0.235-0.062-0.423,0.128-0.599
			c1.468-1.364,2.934-2.721,4.402-4.085c0.249-0.23,0.504-0.321,0.731,0.015c0.926,1.369,1.637,2.845,2.204,4.396
			C58.718,21.713,58.72,21.777,58.729,21.804"/>
		<path fill="#FFFFFF" d="M20.293,34.001c0.287-0.023,0.415,0.091,0.49,0.3c0.253,0.716,0.569,1.4,0.932,2.068
			c0.13,0.237,0.088,0.429-0.104,0.605c-1.48,1.374-2.956,2.748-4.442,4.124c-0.282,0.261-0.543,0.229-0.757-0.107
			c-0.864-1.332-1.573-2.744-2.112-4.235c-0.115-0.321-0.035-0.53,0.284-0.646c1.857-0.69,3.718-1.387,5.571-2.076
			C20.218,34.012,20.279,34.001,20.293,34.001"/>
	</g>
</g>
</svg>
