<?xml version="1.0" encoding="utf-8"?>
<!-- Generator: Adobe Illustrator 16.0.0, SVG Export Plug-In . SVG Version: 6.00 Build 0)  -->
<svg version="1.2" baseProfile="tiny" id="Layer_1" xmlns="http://www.w3.org/2000/svg" xmlns:xlink="http://www.w3.org/1999/xlink"
	 x="0px" y="0px" width="300px" height="300px" viewBox="0 0 300 300" xml:space="preserve">
<g id="New_Symbol_7">
	<g id="New_Symbol_7_1_">
	</g>
</g>
<g id="New_Symbol_11">
	<path fill-rule="evenodd" fill="#FFFFFF" d="M155.554,233.02c-11.106,11.068-23.674,17.652-39.432,17.505
		c-23.392-0.219-39.086-11.92-49.205-32.145c-1.42-2.839-2.655-4.445-6.125-5.191c-22.818-4.908-39.866-25.264-42.333-48.487
		c-3.036-28.588,14.763-52.248,34.996-59.262c1.948-0.676,3.954-3.55,4.435-5.734c7.062-32.053,33.234-53.207,65.998-52.427
		c17.304,0.412,31.688,7.866,43.444,20.473c1.459,1.565,2.873,3.172,4.474,4.942c15.113-6.371,30.077-6.334,44.7,1.415
		c10.027,5.313,17.565,13.197,22.257,23.467c1.8,3.937,4.229,5.917,8.191,7.452c22.318,8.644,33.534,29.113,32.709,50.366
		c-1.019,26.28-16.665,45.885-39.728,50.427c-7.991,1.574-11.847,4.683-15.522,11.736c-12.173,23.362-41.588,31.215-64.334,18.087
		C158.724,234.861,157.37,234.073,155.554,233.02z M117.379,117.309c-0.554-0.251-1.106-0.5-1.66-0.751
		c-1.813,1.375-3.722,2.643-5.423,4.146c-9.69,8.558-19.297,17.211-28.999,25.755c-8.123,7.155-8.144,8.91-0.374,15.957
		c8.998,8.159,17.839,16.49,26.819,24.67c2.648,2.411,5.534,4.563,8.312,6.833c0.552-0.264,1.105-0.525,1.657-0.789
		c0-7.799,0-15.598,0-23.238c21.368,0,41.674,0,62.698,0c0,8.123,0,15.757,0,24.057c1.798-0.786,2.618-0.931,3.138-1.403
		c12.307-11.218,24.594-22.458,36.855-33.725c3.698-3.399,2.427-6.796-0.647-9.557c-11.366-10.209-22.856-20.28-34.383-30.309
		c-1.046-0.911-2.679-1.146-4.04-1.696c-0.448,1.404-1.248,2.799-1.284,4.214c-0.147,5.799-0.062,11.604-0.062,17.179
		c-21.285,0-41.571,0-62.607,0C117.379,131.173,117.379,124.24,117.379,117.309z"/>
</g>
</svg>
