<?xml version="1.0" encoding="utf-8"?>
<!-- Generator: Adobe Illustrator 16.0.0, SVG Export Plug-In . SVG Version: 6.00 Build 0)  -->
<svg version="1.2" baseProfile="tiny" id="Layer_1" xmlns="http://www.w3.org/2000/svg" xmlns:xlink="http://www.w3.org/1999/xlink"
	 x="0px" y="0px" width="300px" height="300px" viewBox="0 0 300 300" xml:space="preserve">
<g id="New_Symbol_7">
</g>
<g id="New_Symbol_11">
</g>
<g id="New_Symbol_16">
</g>
<g id="New_Symbol_15">
</g>
<g id="New_Symbol_8">
</g>
<g>
	<path fill-rule="evenodd" fill="#FFFFFF" d="M33.196,146.068c0.571-29.097,12.255-56.53,34.529-79.407
		c17.025-17.476,37.518-28.973,61.505-33.846c27.108-5.523,52.997-1.604,77.177,11.646c31.945,17.531,52.815,44.038,61.155,79.66
		c6.827,29.15,2.147,56.943-12.874,82.722c-16.793,28.839-41.335,48.276-73.673,56.923c-33.576,8.971-65.063,3.081-93.804-16.13
		c-26.986-18.06-44.259-43.14-51.464-74.949C33.983,164.902,33.262,156.987,33.196,146.068z M151.716,246.225
		c6.653,0.012,13.244-0.56,19.759-1.873c26.879-5.428,48.125-19.34,62.721-42.643c13.941-22.227,17.779-46.611,12.852-72.203
		c-5.686-29.473-21.801-51.796-48.306-66.075c-20.875-11.241-43.28-14.042-66.432-9.563c-28.676,5.551-50.649,20.999-65.116,46.477
		c-11.409,20.1-14.607,41.858-11.232,64.605c2.914,19.604,10.99,36.845,24.65,51.253
		C99.902,236.522,123.965,245.815,151.716,246.225z"/>
	<path fill-rule="evenodd" fill="#FFFFFF" d="M129.036,164.158c19.771-18.229,37.292-34.373,54.823-50.547
		c6.967-6.439,13.804-16.26,24.144-6.568c9.964,9.319,2.722,17.618-4.186,24.87c-18.813,19.798-37.941,39.288-56.556,59.265
		c-10.073,10.832-18.979,10.282-28.601-0.421c-8.33-9.304-18.397-17.359-25.333-27.567c-3.506-5.163-7.522-16.066-2.379-21.063
		c4.931-4.798,15.085-0.522,20.147,2.961C118.85,150.37,124.373,158.959,129.036,164.158z"/>
</g>
<g id="New_Symbol_5">
</g>
<g id="New_Symbol_10">
</g>
<g id="New_Symbol_13">
</g>
<g id="New_Symbol_12">
</g>
</svg>
