<?xml version="1.0" encoding="utf-8"?>
<!-- Generator: Adobe Illustrator 16.0.0, SVG Export Plug-In . SVG Version: 6.00 Build 0)  -->
<svg version="1.2" baseProfile="tiny" id="Layer_1" xmlns="http://www.w3.org/2000/svg" xmlns:xlink="http://www.w3.org/1999/xlink"
	 x="0px" y="0px" width="300px" height="300px" viewBox="324.5 319.5 300 300" xml:space="preserve">
<g id="New_Symbol_31">
</g>
<g id="New_Symbol_32">
</g>
<g id="New_Symbol_35">
</g>
<g id="New_Symbol_37">
	<path fill-rule="evenodd" fill="#FFFFFF" d="M365.815,547.303c-11.959-16.419-19.054-33.46-22.397-52.044
		c-0.353-1.961,1.488-4.985,3.211-6.485c2.234-1.948,5.266-3.158,8.138-4.166c7.005-2.458,9.521-6.845,9.251-14.509
		c-0.257-7.311-0.983-12.381-8.824-15.77c-13.926-6.016-14.385-6.852-9.378-21.006c4.364-12.34,10.56-24.034,15.981-35.998
		c2.229-4.919,5.554-7.061,10.877-4.194c1.33,0.716,2.88,1.029,4.334,1.511c11.399,3.779,19.101,1.35,24.362-9.518
		c1.591-3.286,0.167-9.109-1.747-12.8c-4.885-9.417-1.82-14.892,7.18-18.43c12.785-5.027,25.64-9.879,38.366-15.05
		c6.725-2.734,9.658,0.161,12.637,6.026c2.993,5.896,3.255,14.229,14.06,14.218c9.679-0.008,15.874-2.371,18.484-11.854
		c2.504-9.095,8.188-11.206,16.495-7.66c13.195,5.635,26.39,11.273,39.555,16.977c5.598,2.425,6.861,6.419,4.142,11.887
		c-0.946,1.902-1.214,4.139-2.119,6.068c-2.742,5.849-2.594,10.507,2.936,15.259c5.632,4.841,9.782,11.101,18.626,5.738
		c3.771-2.285,8.549-2.908,12.94-4.311c12.258,15.877,19.047,33.445,22.576,52.341c0.366,1.968-1.22,4.84-2.767,6.473
		c-1.588,1.677-4.229,2.367-6.427,3.455c-10.532,5.216-14.911,13.464-10.545,23.958c1.629,3.915,7.477,6.84,12.026,8.601
		c7.529,2.914,10.159,7.139,6.984,14.68c-5.569,13.227-11.019,26.503-16.712,39.676c-2.499,5.78-6.429,8.802-12.88,5.009
		c-1.037-0.61-2.287-0.867-3.451-1.254c-10.838-3.604-19.773-0.57-24.334,9.919c-1.47,3.383,0.324,8.951,2.118,12.831
		c4.047,8.749,2.195,14.375-6.818,17.971c-11.353,4.528-22.347,10.077-33.923,13.89c-12.981,4.275-13.741,3.88-19.045-8.618
		c-3.254-7.669-7.505-10.149-15.835-10.158c-7.993-0.009-11.341,3.357-14.338,9.795c-5.957,12.787-6.495,13.451-19.834,8.782
		c-14.555-5.096-28.531-11.842-44.525-18.615c17.292-17.309,32.206-32.621,47.727-47.292c1.933-1.825,7.356-1.152,10.691-0.119
		c38.278,11.876,78.088-10.8,85.897-49.968c1.789-8.972,0.264-18.603,0.264-27.928c-0.766-0.335-1.531-0.669-2.298-1.004
		c-9.805,9.934-19.854,19.641-29.309,29.896c-4.644,5.038-8.803,4.744-15.269,3.626c-21.668-3.752-32.239-16.765-36.431-37.33
		c-1.104-5.418-1.306-8.927,2.926-12.889c10.635-9.955,20.854-20.354,31.793-31.118c-34.703-11.332-72.341,11.733-81.486,48.272
		c-3.153,12.603-2.564,25.047,2.131,37.044c2.086,5.331,1.575,8.792-2.632,12.861C394.882,517.83,380.968,532.102,365.815,547.303z"
		/>
</g>
</svg>
