<?xml version="1.0" encoding="utf-8"?>
<!-- Generator: Adobe Illustrator 16.0.0, SVG Export Plug-In . SVG Version: 6.00 Build 0)  -->
<svg version="1.2" baseProfile="tiny" id="Layer_1" xmlns="http://www.w3.org/2000/svg" xmlns:xlink="http://www.w3.org/1999/xlink"
	 x="0px" y="0px" width="300px" height="300px" viewBox="0 0 300 300" xml:space="preserve">
<g id="New_Symbol_31">
</g>
<g id="New_Symbol_32">
	<path fill-rule="evenodd" fill="#FFFFFF" d="M83.297,9.24c44.416,0,88.832,0,133.247,0c13.923,5.618,17.258,10.49,17.258,25.274
		c0.002,77.004-0.16,154.008,0.161,231.009c0.053,12.688-4.729,21.092-17.419,25.237c-44.415,0-88.832,0-133.247,0
		c-13.989-5.631-17.258-10.402-17.258-25.23c-0.002-77.021-0.001-154.042,0-231.061C66.039,19.561,69.257,14.861,83.297,9.24z
		 M217.535,225.387c0-60.614,0-120.783,0-181.239c-45.225,0-90.12,0-135.237,0c0,60.607,0,120.769,0,181.239
		C127.377,225.387,172.143,225.387,217.535,225.387z M149.913,21.756c-9.21,0-18.422,0.095-27.63-0.048
		c-3.625-0.055-5.926,0.726-6.001,4.683c-0.076,4.043,1.851,5.397,6.019,5.367c18.419-0.138,36.842-0.135,55.262-0.001
		c4.168,0.03,6.093-1.332,6.001-5.379c-0.089-3.959-2.403-4.725-6.021-4.67C168.336,21.852,159.124,21.756,149.913,21.756z
		 M149.82,244.443c-7.729,0.045-13.83,5.854-13.741,13.085c0.088,7.157,6.436,13.147,13.9,13.114
		c7.428-0.031,13.83-6.192,13.771-13.251C163.691,250.146,157.507,244.399,149.82,244.443z"/>
</g>
<g id="New_Symbol_35">
</g>
<g id="New_Symbol_37">
</g>
</svg>
