<?xml version="1.0" encoding="utf-8"?>
<!-- Generator: Adobe Illustrator 16.0.0, SVG Export Plug-In . SVG Version: 6.00 Build 0)  -->
<svg version="1.2" baseProfile="tiny" id="Layer_1" xmlns="http://www.w3.org/2000/svg" xmlns:xlink="http://www.w3.org/1999/xlink"
	 x="0px" y="0px" width="300px" height="300px" viewBox="0 0 300 300" xml:space="preserve">
<g>
	<path fill-rule="evenodd" fill="#FFFFFF" d="M153.22,269.002c-32.604-14.123-65.417-27.828-97.751-42.552
		c-17.61-8.016-25.791-27.031-22.656-48.197c0.365-2.415,0.869-4.809,1.378-7.637c1.625,0.451,2.961,0.685,4.183,1.181
		c31.861,12.848,63.694,25.784,95.62,38.482c3.498,1.397,4.834,3.184,4.952,6.857c0.139,4.381,0.687,8.802,1.609,13.088
		c4.99,23.396,29.118,23.73,40.534,12.536c5.045-4.972,9.732-11.044,12.43-17.502c10.396-25.056,20.303-50.295,29.612-75.762
		c8.229-22.512,15.461-45.402,23.085-68.115c0.727-2.16,1.275-4.387,2.082-7.214c-39.27-7.793-78.273-15.543-117.722-23.375
		c-5.305,14.535-10.477,28.763-15.659,42.964c-8.094,22.161-16.208,44.344-24.321,66.533c-0.551,1.486-1.105,2.978-1.787,4.392
		c-2.519,5.066-7.194,7.17-11.729,5.322c-4.657-1.888-6.742-6.44-4.874-11.813c4.994-14.534,10.076-28.99,15.342-43.408
		c9.057-24.839,18.367-49.571,27.35-74.449c1.653-4.609,4.066-8.01,8.642-9.758c0.707,0,1.414,0,2.121,0
		c6.488,1.442,12.929,2.945,19.417,4.281c38.346,7.76,76.697,15.52,115.044,23.224c4.167,0.824,7.604,2.533,9.667,6.402
		c0,1.414,0,2.828,0,4.247c-0.902,2.822-1.729,5.673-2.692,8.467c-13.771,39.936-27.329,79.92-41.413,119.728
		c-6.147,17.413-12.729,34.754-23.435,50.106c-7.466,10.699-17.291,17.886-30.262,20.479c-2.371,0.484-4.731,0.98-7.106,1.492
		C160.986,269.002,157.098,269.002,153.22,269.002z"/>
	<path fill-rule="evenodd" fill="#FFFFFF" d="M152.244,128.298c1.884,0.412,3.832,0.646,5.661,1.258
		c12.238,3.963,24.459,7.932,36.64,12.079c5.97,2.021,8.521,6.68,6.855,11.713c-1.631,4.932-6.168,7.248-12.001,5.438
		c-13.128-4.086-26.192-8.373-39.18-12.809c-4.815-1.653-7.181-6.067-6.109-10.394C145.135,131.382,147.904,128.966,152.244,128.298
		z"/>
	<path fill-rule="evenodd" fill="#FFFFFF" d="M186.979,187.171c0.02,5.84-5.562,10.928-10.666,9.341
		c-14.105-4.342-28.123-8.994-42.023-13.916c-4.938-1.748-6.646-6.735-4.834-11.272c1.787-4.503,6.263-6.78,11.172-5.249
		c12.74,4.008,25.448,8.154,38.136,12.341C183.211,179.868,186.609,182.417,186.979,187.171z"/>
	<path fill-rule="evenodd" fill="#FFFFFF" d="M218.116,110.279c-0.037,6.129-4.95,10.493-10.902,8.979
		c-13.618-3.457-27.171-7.181-40.667-11.1c-5.264-1.525-7.526-6.291-6.091-11.167c1.376-4.687,5.562-7.359,10.725-6.023
		c13.444,3.457,26.841,7.17,40.179,10.983C215.367,103.092,218.158,105.664,218.116,110.279z"/>
	<path fill-rule="evenodd" fill="#FFFFFF" d="M126.116,119.826c5.444-0.078,10.199,4.13,10.368,9.179
		c0.201,5.227-3.827,9.391-9.149,9.525c-5.402,0.123-10.159-4.264-10.14-9.33C117.218,124.424,121.535,119.887,126.116,119.826z"/>
	<path fill-rule="evenodd" fill="#FFFFFF" d="M112.611,173.601c-5.789,0.1-10.053-3.714-10.133-9.074
		c-0.059-5.032,4.244-9.158,9.527-9.141c5.311,0.022,9.608,3.969,9.781,8.985C121.989,169.715,118.214,173.5,112.611,173.601z"/>
	<path fill-rule="evenodd" fill="#FFFFFF" d="M150.963,91.38c0,4.787-4.265,8.84-9.346,8.94c-5.403,0.117-9.906-4.208-9.945-9.508
		c-0.034-4.977,4.033-8.862,9.237-8.84C146.624,81.989,150.963,86.058,150.963,91.38z"/>
</g>
</svg>
