<?xml version="1.0" encoding="utf-8"?>
<!-- Generator: Adobe Illustrator 16.0.0, SVG Export Plug-In . SVG Version: 6.00 Build 0)  -->
<svg version="1.2" baseProfile="tiny" id="Layer_1" xmlns="http://www.w3.org/2000/svg" xmlns:xlink="http://www.w3.org/1999/xlink"
	 x="0px" y="0px" width="300px" height="300px" viewBox="0 0 300 300" xml:space="preserve">
<g>
	<path fill="#DB2734" d="M20.737,142.469c1.26-3.759,1.191-7.749,2.152-11.555c0.787-3.135,1.454-6.341,2.285-9.507
		c0.679-2.514,1.801-3.024,4.232-1.916c10.042,4.559,20.048,9.207,30.091,13.729c1.837,0.812,2.277,1.985,1.845,3.901
		c-2.475,10.913-2.455,21.889-0.028,32.798c0.428,1.954-0.101,3.059-2.019,3.751c-10.35,3.812-20.662,7.677-30.996,11.517
		c-2.031,0.753-3.247,0.18-3.808-2.009c-1.478-5.506-2.419-11.125-3.142-16.792c-0.085-0.569,0.247-1.318-0.614-1.589V142.469z"/>
	<path fill="#36B44B" d="M283.217,158.799c-1.394,3.721-1.123,7.734-2.141,11.546c-0.823,3.151-1.461,6.36-2.313,9.478
		c-0.67,2.544-1.748,3.059-4.228,1.95c-10.111-4.598-20.206-9.227-30.333-13.858c-1.579-0.717-2.039-1.859-1.632-3.509
		c2.516-10.943,2.492-21.89,0.178-32.837c-0.416-1.946,0.206-2.936,1.886-3.563c10.394-3.866,20.845-7.737,31.242-11.601
		c2.107-0.783,3.202,0.089,3.739,2.187c1.409,5.518,2.402,11.126,3.057,16.788c0.068,0.574-0.255,1.339,0.545,1.654V158.799z"/>
	<path fill="#DB2734" d="M70.279,268.695c-1.07-1.436-0.978-2.788-0.194-4.436c10.414-22.158,20.764-44.367,31.113-66.569
		c0.424-0.957,0.61-2.159,1.825-2.547c2.132-0.632,2.847,0.715,3.477,2.396c5.318,14.694,10.66,29.389,15.999,44.091
		c0.569,1.517,1.025,3.075,1.708,4.549c1.001,2.273,0.254,3.505-2.007,4.343c-10.721,3.84-21.438,7.705-32.106,11.668
		c-5.718,2.124-11.597,3.802-17.084,6.505H70.279z"/>
	<path fill="#36B44B" d="M233.699,32.56c1.074,1.32,1.074,2.608,0.323,4.202c-10.515,22.459-20.985,44.918-31.452,67.374
		c-0.509,1.078-1.025,2.158-2.471,2.158c-1.607-0.03-2.092-1.193-2.532-2.425c-5.896-16.255-11.819-32.478-17.714-48.726
		c-1.03-2.791-0.654-3.453,2.378-4.563c15.466-5.629,30.942-11.244,46.396-16.877c0.823-0.297,1.793-0.297,2.346-1.143H233.699z"/>
	<path fill="#36B44B" d="M180.939,226.834c-0.509-2.31,0.698-3.267,2.924-3.84c26.9-6.503,45.317-22.756,55.699-48.305
		c1.122-2.756,1.809-3.144,4.454-1.95c9.804,4.471,19.571,8.999,29.396,13.408c2.718,1.197,2.347,2.909,1.442,5.037
		c-13.862,32.566-37.399,54.813-70.806,66.568c-5.367,1.89-10.959,3.176-16.548,4.226c-2.584,0.48-3.569-0.208-3.792-2.82
		C182.776,248.423,181.86,237.657,180.939,226.834"/>
	<path fill="#DB2734" d="M122.982,74.33c0.509,2.336-0.605,3.328-2.722,3.84c-26.998,6.509-45.487,22.821-55.885,48.454
		c-1.123,2.731-1.817,3.093-4.522,1.827c-9.623-4.377-19.241-8.752-28.867-13.19c-2.908-1.323-3.194-2.035-1.938-5.036
		c10.773-25.954,28.463-45.76,53.22-59.162c10.688-5.79,22.056-9.596,34-11.789c2.822-0.509,3.707,0.061,3.961,2.916
		C121.178,52.921,122.098,63.656,122.982,74.33"/>
	<path fill="#36B44B" d="M232.852,52.622c1.122-0.119,1.816,0.48,2.548,1.02c8.54,6.207,16.075,13.467,22.701,21.678
		c1.43,1.773,1.329,3.148-0.339,4.678c-7.979,7.349-15.954,14.729-23.909,22.128c-1.663,1.559-3.081,1.617-4.502-0.297
		c-3.465-4.797-7.426-9.118-11.961-12.893c-1.563-1.262-1.699-2.516-0.884-4.256c4.757-10.053,9.42-20.119,14.137-30.17
		C231.119,53.49,231.567,52.471,232.852,52.622"/>
	<path fill="#DB2734" d="M71.034,248.635c-1.042,0.119-1.732-0.479-2.447-1.02c-8.459-6.176-15.954-13.376-22.532-21.47
		c-1.595-1.948-1.518-3.329,0.375-5.067c7.895-7.196,15.659-14.511,23.501-21.771c2.148-1.975,3.109-1.916,4.81,0.392
		c3.48,4.557,7.305,8.784,11.698,12.442c1.546,1.295,1.946,2.518,1.046,4.438c-4.716,9.958-9.34,19.971-14.012,29.958
		C72.972,247.615,72.548,248.754,71.034,248.635"/>
	<path fill="#36B44B" d="M276.76,109.41c0.017,1.5-0.73,2.192-1.837,2.612c-10.535,3.871-21.01,7.767-31.536,11.696
		c-1.579,0.565-2.649,0-3.194-1.535c-1.563-4.137-3.331-8.185-5.472-12.11c-0.723-1.322-0.347-2.372,0.715-3.361
		c8.233-7.642,16.446-15.258,24.688-22.91c1.393-1.286,2.822-1.797,4.103,0.093c5.192,7.68,9.17,15.956,12.355,24.647
		C276.699,108.901,276.708,109.267,276.76,109.41"/>
	<path fill="#DB2734" d="M61.238,177.81c1.607-0.138,2.322,0.508,2.746,1.678c1.429,4.018,3.194,7.857,5.225,11.608
		c0.723,1.316,0.5,2.396-0.585,3.386c-8.302,7.707-16.576,15.417-24.91,23.117c-1.583,1.471-3.041,1.293-4.24-0.6
		c-4.854-7.466-8.827-15.376-11.852-23.745c-0.646-1.801-0.19-2.97,1.595-3.632c10.418-3.866,20.852-7.761,31.234-11.631
		C60.814,177.867,61.161,177.81,61.238,177.81"/>
</g>
</svg>
