<?xml version="1.0" encoding="utf-8"?>
<!-- Generator: Adobe Illustrator 16.0.0, SVG Export Plug-In . SVG Version: 6.00 Build 0)  -->
<svg version="1.2" baseProfile="tiny" id="Layer_1" xmlns="http://www.w3.org/2000/svg" xmlns:xlink="http://www.w3.org/1999/xlink"
	 x="0px" y="0px" width="300px" height="300px" viewBox="324.5 0 300 300" xml:space="preserve">
<g id="New_Symbol_31">
	<path fill-rule="evenodd" fill="#FFFFFF" d="M617.973,153.4c-52.323,35.305-104.674,70.554-156.915,106.021
		c-4.345,2.95-7.529,3.117-11.993,0.08c-37.495-25.506-75.158-50.681-112.781-75.935c-1.236-0.829-2.591-1.423-3.891-2.126
		c0-14.758,0-29.517,0-44.275c52.319-35.303,104.668-70.547,156.904-106.015c4.35-2.953,7.546-3.116,12.003-0.083
		c36.942,25.135,74.048,49.945,111.116,74.828c1.791,1.201,3.702,2.159,5.557,3.23C617.973,123.884,617.973,138.643,617.973,153.4z
		 M609.304,111.443c-32.527-21.823-64.372-43.048-96.044-64.618c-3.925-2.673-6.538-2.263-10.234,0.25
		c-47.921,32.553-95.942,64.906-143.928,97.331c-1.483,1.002-2.854,2.227-4.772,3.737c33.131,22.231,65.431,43.997,97.893,65.431
		c1.723,1.139,5.227,0.321,7.201-1c38.392-25.706,76.682-51.62,114.987-77.499C585.846,127.348,597.271,119.592,609.304,111.443z
		 M450.454,252.562c1.888-2.064,3.264-4.742,4.705-4.791c1.271-0.043,2.616,2.85,4.284,4.879
		c10.607-7.171,21.719-14.686,32.835-22.192c38.146-25.757,76.306-51.487,114.407-77.333c2.036-1.381,5.021-3.603,5.136-5.619
		c0.541-9.615,0.241-19.291,0.241-29.854c-2.515,1.53-4.005,2.355-5.428,3.316c-47.45,32.045-94.857,64.177-142.396,96.047
		c-4.512,3.024-7.053,6.079-6.488,12.494c0.185,2.1-1.879,4.468-2.914,6.712c-0.909-2.174-2.809-4.524-2.548-6.487
		c0.929-6.98-2.339-9.908-6.936-12.961c-33.716-22.401-67.305-45.06-100.939-67.626c-1.737-1.166-3.517-2.247-6.179-3.94
		c0,10.46-0.185,19.534,0.147,28.581c0.071,1.93,1.645,4.514,3.156,5.536C377.829,203.866,414.207,228.235,450.454,252.562z
		 M341.835,138.699c0.175,1.069,0.349,2.139,0.522,3.207c3.301-0.183,7.257,0.96,9.804-0.745
		c48.645-32.549,97.126-65.429,145.627-98.268c1.321-0.894,2.499-2.071,3.623-3.015c-3.745-5.122-7.074-4.453-11.359-1.526
		c-35.123,23.987-70.395,47.679-105.612,71.479C370.228,119.432,356.035,129.074,341.835,138.699z"/>
	<path fill-rule="evenodd" fill="#FFFFFF" d="M501.017,146.615c-4.615-0.496-9.269-0.715-13.838-1.546
		c-7.696-1.401-14.281,1.766-20.111,6.837c-6.739,5.863-12.954,7.021-19.654,0.207c-3.497-3.557-7.327-6.668-11.006-9.981
		c3.665-3.07,7.211-6.357,11.017-9.171c13.563-10.025,28.409-13.104,44.277-11.009c8.413,1.109,17.024,1.944,24.686-3.469
		c2.245-1.587,4.959-4.952,4.932-7.466c-0.027-2.545-2.748-6.079-5.044-7.383c-9.355-5.318-19.085-5.14-27.725,1.642
		c-6.384,5.01-11.74,5.498-17.496-0.388c-0.465-0.477-1.137-0.672-1.634-1.116c-3.365-3.014-6.71-6.059-10.061-9.094
		c3.308-2.819,6.356-6.235,9.967-8.36c22.149-13.052,44.644-13.252,67.02-0.961c9.199,5.053,16.485,13.049,16.528,25.736
		c0.043,12.72-7.409,20.36-16.411,25.875C525.407,143.737,513.502,146.512,501.017,146.615z"/>
	<path fill-rule="evenodd" fill="#FFFFFF" d="M445.154,142.8c3.375,2.289,6.162,4.53,9.208,6.092
		c1.466,0.751,3.99,1.094,5.062,0.141c11.769-10.468,24.904-12.324,39.006-9.235c1.833,0.402,3.803,0.166,5.692-0.02
		c13.396-1.319,26.55-3.781,37.031-14.725c8.294-8.661,8.447-19.832-0.284-27.829c-5.154-4.72-11.434-8.565-17.733-10.657
		c-19.03-6.317-37.461-4.311-54.895,8.057c6.69,6.885,12.443,9.102,20.864,3.083c9.404-6.722,20.596-5.968,30.271,0.481
		c3.655,2.437,6.923,8.112,7.866,12.97c1.15,5.922-2.894,11.237-7.751,12.793c-7.762,2.486-16.02,5.403-23.826,4.667
		C477.554,126.912,460.727,128.98,445.154,142.8z"/>
	<path fill-rule="evenodd" fill="#FFFFFF" d="M431.583,149.468c2.904,1.232,7.144,2.153,10.51,4.658
		c5.375,4.001,5.013,11.681-0.397,15.732c-5.867,4.393-12.549,5.161-18.647,1.852c-3.315-1.798-7.477-6.562-7.508-10.033
		c-0.03-3.385,4.397-7.308,7.486-10.058C424.799,150.041,427.797,150.325,431.583,149.468z"/>
	<path fill-rule="evenodd" fill="#FFFFFF" d="M440.015,161.833c-4.04-5.714-12.86-7.368-17.128-2.794
		c-0.765,0.82-0.572,4.587,0.3,5.437C427.371,168.553,435.842,166.986,440.015,161.833z"/>
	<path fill-rule="evenodd" fill="#FFFFFF" d="M603.552,142.524c-2.13,1.813-3.805,3.526-5.697,4.806
		c-37.03,25.072-74.084,50.094-111.135,75.125c-4.197,2.835-8.289,5.928-12.65,8.368c-1.686,0.942-3.985,0.401-6.005,0.537
		c1.028-2.02,1.632-4.847,3.153-5.927c9.9-7.031,20.003-13.677,30.034-20.458c31.558-21.336,63.104-42.692,94.697-63.959
		c1.52-1.022,3.41-1.503,5.172-1.712C601.672,139.238,602.373,140.899,603.552,142.524z"/>
	<path fill-rule="evenodd" fill="#FFFFFF" d="M350.564,168.204c1.564,0.981,2.881,1.76,4.158,2.615
		c27.81,18.643,55.615,37.295,83.421,55.948c0.915,0.613,2.14,1,2.662,1.919c0.815,1.44,1.153,3.245,1.693,4.895
		c-1.546,0.227-3.097,0.642-4.639,0.6c-0.74-0.02-1.464-0.902-2.194-1.392c-27.983-18.779-55.971-37.552-83.94-56.36
		c-1.264-0.849-2.583-1.815-3.47-3.105c-0.502-0.729-0.527-2.453-0.121-3.319C348.544,169.129,349.753,168.762,350.564,168.204z"/>
	<polygon fill-rule="evenodd" fill="#FFFFFF" points="338.585,142.712 453.451,219.998 453.451,254.507 336.363,177.764 	"/>
	<polygon fill-rule="evenodd" fill="#FFFFFF" points="614.011,113.565 614.011,149.615 451.864,256.721 453.451,219.998 
		614.011,112.458 	"/>
</g>
<g id="New_Symbol_32">
</g>
<g id="New_Symbol_35">
</g>
<g id="New_Symbol_37">
</g>
</svg>
