<?xml version="1.0" encoding="utf-8"?>
<!-- Generator: Adobe Illustrator 16.0.0, SVG Export Plug-In . SVG Version: 6.00 Build 0)  -->
<svg version="1.2" baseProfile="tiny" id="Layer_1" xmlns="http://www.w3.org/2000/svg" xmlns:xlink="http://www.w3.org/1999/xlink"
	 x="0px" y="0px" width="300px" height="300px" viewBox="0 0 300 300" xml:space="preserve">
<g id="New_Symbol_7">
</g>
<g id="New_Symbol_11">
</g>
<g>
	<path fill-rule="evenodd" fill="#FFFFFF" d="M33.66,144.277c0.552-27.881,11.737-54.173,33.086-76.096
		c16.314-16.742,35.951-27.757,58.936-32.432c25.978-5.288,50.782-1.537,73.948,11.164c30.615,16.8,50.613,42.199,58.615,76.333
		c6.537,27.934,2.049,54.562-12.346,79.264c-16.098,27.639-39.604,46.259-70.602,54.544c-32.163,8.602-62.345,2.957-89.875-15.461
		c-25.863-17.295-42.42-41.331-49.318-71.805C34.413,162.319,33.717,154.739,33.66,144.277z M147.233,240.247
		c6.373,0.01,12.681-0.537,18.929-1.791c25.752-5.2,46.119-18.527,60.102-40.862c13.354-21.308,17.041-44.67,12.316-69.187
		c-5.449-28.252-20.891-49.633-46.295-63.321c-19.994-10.772-41.461-13.456-63.646-9.157c-27.489,5.318-48.534,20.116-62.397,44.529
		c-10.938,19.266-13.997,40.114-10.762,61.912c2.786,18.781,10.525,35.307,23.614,49.107
		C97.58,230.954,120.636,239.854,147.233,240.247z"/>
	<path fill-rule="evenodd" fill="#FFFFFF" d="M129.392,131.224c0.402-1.29,0.697-2.424,1.145-3.508
		c0.134-0.331,0.661-0.635,1.053-0.702c11.485-1.898,22.959-3.823,34.453-5.593c2.172-0.335,4.432-0.04,6.811-0.04
		c-0.748,2.631-1.465,5.159-2.193,7.702c-6.648,23.078-13.305,46.15-19.918,69.238c-0.578,2.027-1.063,4.133-1.27,6.238
		c-0.3,2.951,2.239,4.623,4.854,3.25c1.152-0.609,2.287-1.439,3.111-2.43c3.023-3.633,5.918-7.379,8.844-11.083
		c0.402-0.51,0.738-1.078,1.182-1.737c1.16,0.681,2.244,1.32,3.277,1.929c0.029,0.19,0.076,0.31,0.039,0.372
		c-4.617,8.11-9.916,15.684-17.387,21.488c-4.994,3.879-10.581,6.247-17.025,6.094c-2.926-0.068-5.753-0.651-8.24-2.281
		c-4.607-3.003-6.79-7.409-5.969-12.743c0.794-5.16,2.208-10.241,3.642-15.276c4.442-15.695,9.044-31.345,13.533-47.018
		c0.563-1.951,0.8-3.983,1.192-5.981c1.027-5.226-3.064-7.831-6.634-7.913C132.472,131.193,131.059,131.224,129.392,131.224z"/>
	<path fill-rule="evenodd" fill="#FFFFFF" d="M173.463,93.313c0.021,8.679-6.789,15.582-15.416,15.607
		c-8.58,0.036-15.519-6.893-15.535-15.514c-0.015-8.679,6.826-15.582,15.453-15.582C166.664,77.824,173.453,84.599,173.463,93.313z"
		/>
</g>
<g id="New_Symbol_16">
</g>
<g id="New_Symbol_15">
</g>
<g id="New_Symbol_8">
</g>
<g id="New_Symbol_5">
</g>
<g id="New_Symbol_10">
</g>
<g id="New_Symbol_13">
</g>
<g id="New_Symbol_12">
</g>
</svg>
