<?xml version="1.0" encoding="utf-8"?>
<!-- Generator: Adobe Illustrator 16.0.0, SVG Export Plug-In . SVG Version: 6.00 Build 0)  -->
<svg version="1.2" baseProfile="tiny" id="Layer_1" xmlns="http://www.w3.org/2000/svg" xmlns:xlink="http://www.w3.org/1999/xlink"
	 x="0px" y="0px" width="300px" height="300px" viewBox="0 0 300 300" xml:space="preserve">
<g id="New_Symbol_7">
</g>
<g id="New_Symbol_11">
</g>
<g id="New_Symbol_16">
</g>
<g id="New_Symbol_15">
</g>
<g id="New_Symbol_8">
</g>
<g id="New_Symbol_5">
</g>
<g id="New_Symbol_10">
	<path fill-rule="evenodd" fill="#FFFFFF" d="M155.153,176.479c-0.996-0.568-1.883-1.014-2.706-1.558
		c-1.591-1.053-1.849-2.179-0.937-3.851c1.228-2.249,2.424-4.517,3.724-6.724c0.522-0.888,0.517-1.468-0.144-2.331
		c-8.334-10.912-11.868-23.244-10.717-36.913c1.86-22.1,19.225-41.466,40.965-45.786c11.565-2.299,22.677-1.047,33.333,4.042
		c0.464,0.223,0.913,0.476,1.476,0.771c-1.281,3.818-2.95,7.309-5.872,10.083c-0.417,0.395-0.857,0.767-1.282,1.154
		c-2.234,2.04-4.411,3.136-7.878,2.683c-9.624-1.258-18.449,6.078-19.891,15.819c-1.396,9.435,4.94,18.639,14.266,20.721
		c8.106,1.81,16.197-1.771,20.364-8.979c0.291-0.504,0.735-1.125,1.232-1.272c9.174-2.713,15.199-9.057,19.828-17.041
		c0.236-0.406,0.468-0.815,0.706-1.22c0.053-0.089,0.129-0.164,0.383-0.48c0.965,2.205,1.971,4.249,2.77,6.371
		c11.668,30.98-8.534,65.066-41.339,69.583c-4.062,0.559-8.242,0.342-12.365,0.299c-1.087-0.011-1.564,0.261-2.026,1.149
		c-1.183,2.271-2.451,4.499-3.695,6.739c-0.929,1.672-2.006,2.045-3.762,1.243c-0.896-0.409-1.742-0.926-2.75-1.469
		c-0.731,1.306-1.444,2.564-2.144,3.83c-2.931,5.31-5.879,10.611-8.764,15.946c-0.484,0.896-1.027,1.266-2.056,1.293
		c-2.194,0.056-4.394,0.2-6.571,0.464c-0.6,0.072-1.34,0.569-1.658,1.089c-1.06,1.734-2.764,3.604-2.683,5.351
		c0.076,1.648,1.976,3.315,3.295,4.774c1.245,1.379,1.169,2.426,0.358,4.073c-1.181,2.397-2.538,3.954-5.41,3.507
		c-0.35-0.055-0.726,0.073-1.09,0.109c-1.501,0.154-3.563-0.248-4.383,0.579c-1.523,1.537-2.355,3.775-3.389,5.768
		c-0.144,0.275,0.103,0.88,0.341,1.207c1.234,1.688,2.577,3.301,3.761,5.023c0.293,0.426,0.316,1.221,0.152,1.749
		c-0.692,2.225-2.233,3.24-4.611,3.418c-2.168,0.162-4.303,0.771-6.616,1.215c1.375,2.28,2.718,4.395,3.919,6.588
		c0.28,0.513,0.31,1.408,0.051,1.927c-1.143,2.291-2.412,4.521-3.688,6.742c-0.235,0.41-0.66,0.903-1.074,0.991
		c-5.517,1.162-11.046,2.258-16.711,3.398c-1.058-2.753-2.087-5.421-3.107-8.092c-0.896-2.344-1.728-4.713-2.698-7.025
		c-0.431-1.024-0.312-1.804,0.216-2.759c13.378-24.21,26.723-48.438,40.071-72.663C154.598,177.563,154.829,177.098,155.153,176.479
		z"/>
	<path fill-rule="evenodd" fill="#FFFFFF" d="M112.624,140.294c-0.902-0.854-1.733-1.57-2.483-2.364
		c-1.419-1.504-1.405-2.868-0.012-4.386c1.415-1.541,2.8-3.114,4.276-4.596c0.703-0.705,0.742-1.316,0.406-2.212
		c-3.449-9.198-6.854-18.414-10.276-27.622c-1.475-3.966-0.684-7.064,2.552-9.834c11.528-9.865,23.058-19.729,34.591-29.589
		c3.727-3.185,7.846-3.145,11.421,0.138c5.164,4.742,10.301,9.514,15.461,14.261c0.304,0.279,0.71,0.447,1.204,0.751
		c-30.321,14.334-45.1,52.62-26.856,85.696c-0.032,0.098-0.042,0.217-0.104,0.291c-3.123,3.736-3.788,3.782-7.343,0.532
		c-0.304-0.278-0.633-0.529-1.047-0.873c-7.806,8.446-15.571,16.851-23.42,25.343c-1.684-1.551-3.309-3.008-4.888-4.515
		c-1.042-0.995-1.95-1.029-2.926,0.096c-1.098,1.263-2.245,2.485-3.408,3.689c-1.008,1.043-0.98,1.971,0.104,2.943
		c1.628,1.457,3.218,2.957,4.905,4.513c-3.201,3.468-6.316,6.841-9.554,10.347c-1.405-1.294-2.738-2.52-4.07-3.746
		c-2.321-2.139-2.38-2.138-4.47,0.128c-0.816,0.885-1.639,1.764-2.453,2.65c-1.384,1.509-1.374,1.989,0.089,3.356
		c1.52,1.42,3.05,2.828,4.684,4.344c-1.566,1.692-3.041,3.285-4.604,4.975c-1.628-1.498-3.155-2.912-4.693-4.316
		c-1.509-1.379-1.926-1.357-3.35,0.167c-1.106,1.187-2.188,2.396-3.302,3.575c-0.908,0.961-0.825,1.815,0.14,2.69
		c1.659,1.505,3.285,3.045,4.987,4.628c-1.438,1.55-2.77,3.021-4.153,4.443c-0.255,0.262-0.716,0.443-1.088,0.454
		c-8.21,0.226-16.422,0.422-24.633,0.621c-0.049,0.002-0.097-0.026-0.367-0.107c0-0.483-0.009-1.034,0.001-1.586
		c0.078-4.447,0.216-8.894,0.206-13.342c-0.003-1.317,0.438-2.23,1.306-3.169c20.577-22.234,41.13-44.494,61.687-66.749
		C111.605,141.421,112.059,140.916,112.624,140.294z"/>
	<path fill-rule="evenodd" fill="#FFFFFF" d="M193.602,112.063c18.055,0.111,32.425-12.796,35.12-29.397
		c2.552-15.721-5.954-31.141-20.634-37.56c-14.702-6.428-34.32-2.006-44.199,14.719c-3.071-2.784-6.127-5.555-9.39-8.514
		c1.585-1.989,2.995-4.072,4.71-5.864c13.374-13.978,29.638-19.003,48.181-13.639c18.673,5.403,30.081,18.393,33.494,37.548
		c4.602,25.821-13.217,50.346-39.009,54.476c-1.599,0.256-3.222,0.439-4.836,0.464c-0.589,0.01-1.42-0.385-1.741-0.863
		C192.964,119.957,192.74,116.129,193.602,112.063z"/>
</g>
<g id="New_Symbol_13">
</g>
<g id="New_Symbol_12">
</g>
</svg>
