<?xml version="1.0" encoding="utf-8"?>
<!-- Generator: Adobe Illustrator 16.0.0, SVG Export Plug-In . SVG Version: 6.00 Build 0)  -->
<svg version="1.2" baseProfile="tiny" id="Layer_1" xmlns="http://www.w3.org/2000/svg" xmlns:xlink="http://www.w3.org/1999/xlink"
	 x="0px" y="0px" width="72.952px" height="72.784px" viewBox="0 0 72.952 72.784" xml:space="preserve">
<path fill="#FFFFFF" d="M1.629,36.078C1.795,20.31,13.099,6.882,28.717,4.105c1.642-0.294,3.32-0.357,4.987-0.536
	c1.633-0.173,2.513,0.357,2.371,2.198c-0.124,1.598-0.09,3.218-0.008,4.816c0.086,1.53-0.492,2.087-2.045,2.103
	c-5.803,0.058-10.86,2.056-15.297,5.842c-8.684,7.403-10.519,21.489-3.951,30.8c4.719,6.693,11.186,10.126,19.316,10.374
	c1.619,0.047,2.069,0.6,1.982,2.093c-0.09,1.598-0.097,3.218,0,4.816c0.102,1.641-0.55,2.261-2.177,2.214
	C17.673,68.309,4.96,56.973,2.218,41.689C1.887,39.844,1.821,37.951,1.629,36.078z"/>
<path fill="#FFFFFF" d="M53.796,19.51c0.884,0.568,1.32,0.757,1.627,1.068c4.953,4.921,9.879,9.863,14.824,14.79
	c0.7,0.7,1.238,1.299,0.278,2.25c-5.11,5.059-10.186,10.154-15.284,15.228c-0.231,0.237-0.558,0.384-1.106,0.747
	c-0.137-0.694-0.313-1.183-0.321-1.677c-0.031-2.166-0.103-4.338,0.013-6.498c0.087-1.635-0.447-2.209-2.132-2.177
	c-5.029,0.1-10.063-0.047-15.092,0.079c-2.044,0.047-2.692-0.631-2.576-2.639c0.153-2.713,0.166-5.454-0.005-8.172
	c-0.133-2.103,0.694-2.597,2.647-2.55c5.029,0.111,10.061-0.01,15.092,0.063c1.527,0.021,2.129-0.425,2.066-2.019
	C53.72,25.326,53.796,22.645,53.796,19.51z"/>
</svg>
