<?xml version="1.0" encoding="utf-8"?>
<!-- Generator: Adobe Illustrator 16.0.0, SVG Export Plug-In . SVG Version: 6.00 Build 0)  -->
<svg version="1.2" baseProfile="tiny" id="Layer_1" xmlns="http://www.w3.org/2000/svg" xmlns:xlink="http://www.w3.org/1999/xlink"
	 x="0px" y="0px" width="300px" height="300px" viewBox="0 0 300 300" xml:space="preserve">
<g id="New_Symbol_7">
	<g id="New_Symbol_7_1_">
	</g>
</g>
<g id="New_Symbol">
	<path fill-rule="evenodd" fill="#FFFFFF" d="M125.195,196.971c0.004-21.309-0.041-42.619,0.059-63.927
		c0.013-2.794-0.69-3.83-3.638-3.707c-2.842,0.119-2.642,1.789-2.64,3.646c0.004,14.892,0.001,29.784-0.002,44.676
		c0,1.21,0.077,2.432-0.065,3.628c-0.125,1.062-0.324,2.188-0.806,3.123c-1.656,3.214-7.716,4.597-13.285,3.054
		c-3.593-0.996-4.874-3.625-4.869-7.158c0.023-15.496,0.01-30.994,0.013-46.491c0.001-6.295-0.042-12.592,0.026-18.887
		c0.111-10.038,5.336-15.148,15.349-15.114c8.596,0.03,17.191,0.083,25.787,0.068c1.213-0.002,2.798,0.5,3.179-1.49
		c0.355-1.863-0.44-2.751-2.149-3.541c-8.65-3.993-12.93-11.12-13.398-20.383c-0.379-7.488-0.223-15.012-0.075-22.515
		c0.223-11.409,8.364-19.568,19.726-19.877c4.717-0.128,9.443-0.068,14.164-0.004c10.127,0.136,18.554,7.711,19.209,18.313
		c0.514,8.32,0.582,16.727,0.011,25.039c-0.611,8.908-5.016,15.831-13.513,19.522c-1.679,0.729-2.105,1.687-1.927,3.313
		c0.229,2.079,1.812,1.624,3.032,1.625c8.716,0.004,17.433-0.096,26.147-0.073c8.504,0.023,13.84,5.336,13.854,13.811
		c0.032,21.55,0.024,43.102,0.003,64.652c-0.006,5.321-2.154,7.463-7.457,7.603c-1.21,0.032-2.421,0.022-3.632,0.006
		c-5.86-0.082-7.825-2.043-7.831-7.896c-0.015-14.771,0.019-29.542-0.037-44.313c-0.006-1.799,1.005-4.141-2.617-4.253
		c-3.797-0.117-3.276,2.179-3.276,4.436c0.006,41.527,0.017,83.055,0.021,124.583c0.002,1.331,0.102,2.681-0.077,3.99
		c-0.467,3.428-2.472,5.638-5.932,5.809c-4.71,0.231-9.446,0.194-14.159,0c-3.363-0.139-5.752-2.537-5.779-5.85
		c-0.083-9.503,0.071-19.008,0.064-28.511c-0.008-9.335-0.082-18.669-0.162-28.003c-0.03-3.526-2.776-1.693-4.331-2.033
		c-2.067-0.452-2.99,0.403-2.973,2.727c0.096,11.864,0.035,23.729,0.032,35.595c-0.001,6.175,0.035,12.35,0.003,18.524
		c-0.028,5.314-2.229,7.564-7.452,7.637c-3.631,0.049-7.265,0.039-10.896,0.003c-5.44-0.054-7.687-2.293-7.693-7.792
		C125.177,239.345,125.192,218.157,125.195,196.971z"/>
	<path fill-rule="evenodd" fill="#FFFFFF" d="M106.804,264.86c-2.421-0.011-4.842-0.01-7.263-0.036
		c-6.677-0.074-8.472-1.803-8.49-8.371c-0.038-13.801-0.021-27.601-0.03-41.401c-0.001-2.3-0.121-4.606,0.011-6.897
		c0.146-2.554-0.37-4.093-3.453-4.096c-3.092-0.003-3.098,1.721-3.09,3.98c0.052,15.979,0.035,31.958,0.033,47.938
		c-0.001,7.252-1.645,8.862-9.033,8.869c-2.785,0.003-5.568,0.005-8.353-0.025c-5.126-0.055-7.324-2.104-7.364-7.278
		c-0.092-11.982-0.058-23.968-0.061-35.952c-0.005-27.843,0.014-55.685-0.047-83.526c-0.003-1.448,0.944-3.605-1.803-3.977
		c-2.727-0.371-3.859,0.481-3.83,3.502c0.139,14.162,0.044,28.327,0.058,42.49c0.007,7.322-1.594,8.91-9.028,8.811
		c-0.726-0.01-1.453-0.016-2.178-0.05c-4.838-0.225-6.759-2.1-6.783-7.002c-0.069-14.042-0.052-28.084-0.061-42.126
		c-0.004-6.415-0.021-12.831,0.021-19.247c0.061-9.634,5.005-14.552,14.561-14.561c7.869-0.007,15.737,0.006,23.605-0.064
		c1.325-0.013,3.083,0.494,3.524-1.576c0.433-2.028-1.254-2.28-2.514-2.916c-7.32-3.695-11.439-9.835-11.988-17.814
		c-0.548-7.951-0.463-15.982-0.071-23.949c0.483-9.837,8.684-17.222,18.491-17.287c3.995-0.026,7.992,0.09,11.984-0.028
		c6.972-0.205,12.419,2.537,16.468,8.164c0.168,9.546-0.505,19.105,0.435,28.638c0.151,1.525-0.045,2.271-1.894,2.663
		c-17.311,3.667-27.097,15.78-27.115,33.383c-0.022,21.647-0.033,43.294-0.009,64.943c0.015,14.456,8.676,24.229,23.011,25.851
		c1.973,0.223,2.356,0.996,2.351,2.721C106.837,227.373,106.827,246.116,106.804,264.86z"/>
	<path fill-rule="evenodd" fill="#FFFFFF" d="M200.599,49.086c4.913-5.145,10.871-7.418,18-6.816
		c2.766,0.233,5.568,0.02,8.354,0.031c11.649,0.043,19.356,6.983,19.97,18.531c0.377,7.124,0.452,14.312-0.044,21.421
		c-0.591,8.472-4.413,15.279-12.438,19.113c-1.367,0.652-2.777,1.239-2.329,3.119c0.413,1.736,1.956,1.597,3.25,1.605
		c7.751,0.045,15.501,0.035,23.252,0.051c9.475,0.02,13.988,4.506,14.001,14.031c0.028,19.74,0.02,39.479,0.005,59.219
		c-0.006,5.768-1.878,7.632-7.578,7.682c-1.09,0.01-2.181,0.013-3.269-0.014c-4.751-0.114-6.682-1.867-6.797-6.559
		c-0.177-7.26-0.238-14.522-0.254-21.785c-0.015-6.777,0.118-13.557,0.132-20.334c0.004-1.973,0.584-4.375-2.756-4.35
		c-3.301,0.025-2.764,2.431-2.766,4.391c-0.023,38.269-0.016,76.537-0.021,114.806c-0.001,10.688-0.823,11.49-11.639,11.501
		c-1.817,0.001-3.635,0.029-5.449-0.018c-5.393-0.138-7.479-2.176-7.493-7.57c-0.044-16.349-0.018-32.698-0.027-49.047
		c0-1.952,0.201-3.948-2.716-4.158c-3.059-0.222-4.02,1.091-4.001,4.022c0.086,13.684,0.033,27.369,0.025,41.053
		c-0.003,3.027,0.09,6.061-0.062,9.081c-0.213,4.289-2.356,6.398-6.643,6.59c-2.779,0.123-5.569,0.021-8.354,0.02
		c-0.02-19.012,0.005-38.022-0.113-57.031c-0.017-2.52,0.922-3.184,3.241-3.571c13.774-2.311,21.627-11.641,21.659-25.685
		c0.052-21.796,0.052-43.593-0.012-65.39c-0.044-15.428-9.493-27.252-24.572-30.935c-1.769-0.432-3.48-0.464-3.12-3.262
		c1.113-8.676,0.364-17.411,0.48-26.12C200.533,51.501,200.571,50.293,200.599,49.086z"/>
</g>
</svg>
