<?xml version="1.0" encoding="utf-8"?>
<!-- Generator: Adobe Illustrator 16.0.0, SVG Export Plug-In . SVG Version: 6.00 Build 0)  -->
<svg version="1.2" baseProfile="tiny" id="Layer_1" xmlns="http://www.w3.org/2000/svg" xmlns:xlink="http://www.w3.org/1999/xlink"
	 x="0px" y="0px" width="300px" height="300px" viewBox="0 0 300 300" xml:space="preserve">
<g id="New_Symbol_7">
</g>
<g id="New_Symbol_11">
</g>
<g id="New_Symbol_16">
</g>
<g id="New_Symbol_15">
</g>
<g id="New_Symbol_8">
</g>
<g id="New_Symbol_5">
</g>
<g id="New_Symbol_10">
</g>
<g id="New_Symbol_13">
</g>
<g id="New_Symbol_12">
	<path fill-rule="evenodd" fill="#FFFFFF" d="M82.974,140.775c8.732-25,17.955-47.899,40.801-61.954
		c19.604-12.063,41.021-15.735,63.531-13.863c3.152,0.261,6.932,2.888,8.933,5.542c22.075,29.247,26.895,62.794,23.743,98.207
		c-0.315,3.531-0.789,7.05-1.316,11.691c-9.911-4.525-19.439-8.899-28.988-13.231c-16.854-7.646-33.547-15.682-50.627-22.781
		C121.434,137.063,103.254,132.978,82.974,140.775z"/>
	<path fill-rule="evenodd" fill="#FFFFFF" d="M219.661,191.196c-14.4,8.266-27.932,16.799-42.142,23.995
		c-18.001,9.118-34.629,4.406-49.433-7.881c-8.593-7.131-16.581-14.988-24.858-22.501c-14.073-12.774-29.187-23.484-49.303-24.551
		c25.237-12.969,50.737-22.485,78.899-9.763c27.959,12.631,55.852,25.41,83.757,38.163
		C217.427,189.046,218.074,189.869,219.661,191.196z"/>
	<path fill-rule="evenodd" fill="#FFFFFF" d="M266.847,201.823c-14.368-6.456-28.177-12.66-42.567-19.124
		c5.337-40.464,3.146-79.842-22.891-114.755C256.652,73.555,288.483,138.816,266.847,201.823z"/>
	<path fill-rule="evenodd" fill="#FFFFFF" d="M88.616,180.878C75.775,197.234,60.49,207.47,43.05,214.324
		c-8.243,3.237-16.683-5.5-16.355-15.795c0.692-21.734,16.786-34.153,37.854-28.301C72.639,172.478,80.09,177.024,88.616,180.878z"
		/>
	<path fill-rule="evenodd" fill="#FFFFFF" d="M186.453,60.725c6.982-4.42,11.703-3.656,16.562,2.775
		C197.204,62.526,192.23,61.694,186.453,60.725z"/>
</g>
</svg>
