<?xml version="1.0" encoding="utf-8"?>
<!-- Generator: Adobe Illustrator 16.0.0, SVG Export Plug-In . SVG Version: 6.00 Build 0)  -->
<svg version="1.2" baseProfile="tiny" id="Layer_1" xmlns="http://www.w3.org/2000/svg" xmlns:xlink="http://www.w3.org/1999/xlink"
	 x="0px" y="0px" width="300px" height="300px" viewBox="0 0 300 300" xml:space="preserve">
<g id="New_Symbol_7">
</g>
<g>
	<path fill-rule="evenodd" fill="#FFFFFF" d="M185.781,220.281c1.865,25.411-15.585,36.466-30.242,36.818
		c-18.468,0.449-29.971-13.013-31.103-36.818c-6.622,0-13.296,0-19.979,0c-10.937,0-21.869,0.26-32.777-0.189
		c-2.755-0.129-6.461-1.91-7.855-4.131c-2.03-3.166,0.745-5.941,3.426-8.196c13.839-11.572,20.393-26.463,20.393-44.506
		c0-14.725-0.64-29.616,1.064-44.176c2.949-25.6,17.581-43.432,41.175-53.351c5.456-2.313,7.394-4.641,7.048-10.449
		c-0.437-7.899,3.214-14.135,10.604-17.512c6.897-3.142,13.556-2.197,19.461,2.573c5.433,4.381,6.955,10.557,6.611,17.135
		c-0.188,4.063,0.944,5.94,5.03,7.45c26.688,9.813,43.562,34.02,44.08,62.893c0.216,13.107-0.117,26.213,0.228,39.333
		c0.484,16.166,7.296,29.427,19.459,39.982c0.558,0.461,1.356,0.839,1.596,1.431c1.049,2.503,3.21,5.55,2.505,7.473
		c-0.748,1.984-4.326,3.945-6.735,4.041c-10.533,0.446-21.114,0.199-31.669,0.199C200.658,220.281,193.233,220.281,185.781,220.281z
		"/>
	<path fill-rule="evenodd" fill="#FFFFFF" d="M225.717,207.988c-1.051-1.676-1.57-2.562-2.159-3.424
		c-7.924-11.1-12.423-23.357-12.706-37.055c-0.283-15.646,0.352-31.387-1.063-46.939c-2.385-26.213-26.391-47.351-52.645-47.788
		c-28.348-0.436-52.982,19.059-56.194,46.136c-1.784,15.293-1.016,30.891-1.226,46.348c-0.166,14.254-4.278,27.172-12.493,38.838
		c-0.794,1.1-1.384,2.327-2.271,3.885C131.982,207.988,178.355,207.988,225.717,207.988z"/>
</g>
<g id="New_Symbol_9">
</g>
</svg>
