<?xml version="1.0" encoding="utf-8"?>
<!-- Generator: Adobe Illustrator 16.0.0, SVG Export Plug-In . SVG Version: 6.00 Build 0)  -->
<svg version="1.2" baseProfile="tiny" id="Layer_1" xmlns="http://www.w3.org/2000/svg" xmlns:xlink="http://www.w3.org/1999/xlink"
	 x="0px" y="0px" width="300px" height="300px" viewBox="0 0 300 300" xml:space="preserve">
<g id="New_Symbol_7">
</g>
<g id="New_Symbol_11">
</g>
<g id="New_Symbol_16">
</g>
<g id="New_Symbol_15">
</g>
<g id="New_Symbol_8">
</g>
<g>
	<path fill-rule="evenodd" fill="#FFFFFF" d="M214.118,268.31c-58.884,0-117.751,0-176.716,0c0-78.448,0-156.927,0-235.375
		c45.339,0,90.629,0,135.911,0c0.972,1.192,1.87,2.463,2.945,3.539c11.427,11.443,22.966,22.77,34.216,34.385
		c1.798,1.87,3.122,5.04,3.162,7.615c0.281,17.397,0.152,34.778,0.152,52.167c0,1.87,0,3.74,0,5.529
		c1.99,0.449,3.354,0.786,4.711,1.043c20.959,4.045,36.688,15.552,46.413,34.409c3.731,7.222,5.248,15.6,7.776,23.448
		c0,4.533,0,9.067,0,13.593c-0.297,0.827-0.715,1.589-0.852,2.407c-3.129,21.779-14.34,38.261-33.494,48.66
		C230.905,263.775,222.223,265.509,214.118,268.31z M52.2,253.408c37.427,0,74.435,0,111.845,0
		c-3.522-3.876-7.037-7.215-9.854-11.099c-2.006-2.776-4.181-3.507-7.414-3.482c-24.748,0.12-49.512,0.057-74.243,0.057
		c-1.846,0-3.675,0-5.786,0c0-14.726-0.056-28.664,0-42.595c0.057-10.736,5.345-16,16.121-16c18.649-0.057,37.307-0.145,55.939,0.08
		c3.892,0.031,5.721-1.067,7.318-4.694c8.738-19.716,23.809-32.179,44.584-37.755c2.793-0.73,5.657-1.188,8.24-1.75
		c0-15.102,0-29.658,0-44.776c-14.732,0-29.104,0-43.901,0c0-14.846,0-29.089,0-43.533c-34.481,0-68.554,0-102.85,0
		C52.2,116.397,52.2,184.646,52.2,253.408z M258.012,202.211c0.08-28.213-23.094-51.549-51.404-51.741
		c-27.974-0.225-51.63,23.359-51.773,51.517c-0.145,28.063,23.351,51.63,51.549,51.654
		C234.701,253.664,257.947,230.53,258.012,202.211z M169.759,76.664c8.812,0,16.979,0,26.634,0
		c-5.256-5.015-9.541-9.039-13.746-13.14c-4.109-3.996-8.129-8.073-12.888-12.831C169.759,60.206,169.759,68.307,169.759,76.664z"/>
	<path fill-rule="evenodd" fill="#FFFFFF" d="M154.745,136.475c-0.249,16.346-13.185,28.856-29.603,28.632
		c-16.273-0.257-29.145-13.394-28.889-29.506c0.241-16.234,13.305-29.057,29.482-28.977
		C142.251,106.712,154.994,119.824,154.745,136.475z"/>
	<path fill-rule="evenodd" fill="#FFFFFF" d="M229.975,194.677c2.006,0.2,3.676,0.36,5.665,0.569c0,11.893,0,23.672,0,35.854
		c-19.299,0-38.493,0-58.024,0c0-11.844,0-23.592,0-35.773c1.612-0.2,3.258-0.417,5.537-0.738
		c0.473-9.372,0.922-19.082,9.861-25.285c5.328-3.715,11.33-4.196,17.494-3.57C222.592,166.952,228.434,175.506,229.975,194.677z
		 M198.294,194.677c5.825,0,11.01,0,16.41,0c0.602-5.185,1.147-10.536-3.611-13.28c-2.431-1.421-7.237-1.252-9.638,0.305
		C197.025,184.51,197.813,189.75,198.294,194.677z"/>
</g>
<g id="New_Symbol_5">
</g>
<g id="New_Symbol_10">
</g>
<g id="New_Symbol_13">
</g>
<g id="New_Symbol_12">
</g>
</svg>
