<?xml version="1.0" encoding="utf-8"?>
<!-- Generator: Adobe Illustrator 16.0.0, SVG Export Plug-In . SVG Version: 6.00 Build 0)  -->
<svg version="1.2" baseProfile="tiny" id="Layer_1" xmlns="http://www.w3.org/2000/svg" xmlns:xlink="http://www.w3.org/1999/xlink"
	 x="0px" y="0px" width="300px" height="300px" viewBox="0 0 300 300" xml:space="preserve">
<g id="New_Symbol_7">
</g>
<g id="New_Symbol_11">
</g>
<g id="New_Symbol_16">
</g>
<g id="New_Symbol_15">
</g>
<g id="New_Symbol_8">
</g>
<g id="New_Symbol_5">
	<path fill-rule="evenodd" fill="#FFFFFF" d="M84.276,205.277c-1.947,20.272-1.947,20.279-21.82,20.294
		c-8.398,0.007-16.799-0.183-25.192,0.003c-7.64,0.168-11.617-3.396-11.765-10.933c-0.446-22.649-1.431-45.322-0.688-67.938
		c0.198-6.05,5.149-12.438,9.184-17.7c2.879-3.755,7.875-5.885,11.64-10.214c-2.219,0.138-4.592,0.851-6.63,0.306
		c-6.49-1.733-13.146-3.345-19.107-6.284c-2.004-0.988-3.61-6.374-2.714-8.73c1.06-2.787,4.719-5.592,7.785-6.424
		c9.35-2.537,17.902,2.346,22.273,11.568c0.651,1.375,1.894,2.47,3.83,4.917c4.047-9.116,8.016-17,11.086-25.221
		c4.609-12.345,12.378-17.566,26.149-16.973c24.553,1.061,49.187,0.299,74.163,0.299c0.278,3.532,0.51,6.492,0.823,10.479
		c-16.497,0-32.646,0.002-48.795,0c-9.797-0.002-19.631-0.485-29.373,0.248c-3.521,0.264-8.406,2.598-9.931,5.45
		c-5.093,9.523-8.948,19.71-13.714,30.647c41.996,0,82.955,0,124.271,0c3.856,14.241,7.545,27.874,11.62,42.928
		c-5.538,0-9.913,0.002-14.287,0c-31.632-0.01-63.264-0.169-94.892,0.153c-3.958,0.039-10.985,2.145-11.276,4.09
		c-1.028,6.866-0.219,14.167,1.077,21.081c0.249,1.324,5.862,2.31,9.006,2.324c36.109,0.171,72.218,0.123,108.329,0.133
		c2.211,0,4.422,0,7.462,0c-5.905,10.126-11.586,16.616-24.946,15.934c-28.198-1.444-56.521-0.438-84.792-0.437
		C90.292,205.277,87.536,205.277,84.276,205.277z M54.956,169.704c6.461-0.031,10.794-3.656,10.845-9.073
		c0.074-7.929-10.425-16.708-20.105-16.638c-5.938,0.043-10.525,2.158-10.722,8.979C34.743,160.916,45.445,169.749,54.956,169.704z"
		/>
	<path fill-rule="evenodd" fill="#FFFFFF" d="M236.99,258.021c-4.405-1.609-9.393-2.381-13.12-4.968
		c-20.534-14.244-23.232-41.595-6.641-60.222c1.787-2.007,2.847-6.048,2.193-8.626c-5.897-23.275-12.137-46.468-18.653-69.579
		c-0.658-2.336-3.459-4.861-5.853-5.789c-20.801-8.069-30.805-30.46-21.846-50.797c1.772-4.025,5.904-7.011,8.948-10.476
		c0.712,0.499,1.424,0.998,2.137,1.495c0.801,6.581,1.52,13.174,2.423,19.739c0.977,7.109,3.881,13.894,11.403,14.785
		c5.185,0.613,11.766-1.054,15.989-4.103c6.091-4.398,5.656-11.604,2.703-18.354c-2.66-6.082-5.222-12.207-8.926-20.888
		c5.765,1.493,10.197,1.657,13.518,3.663c19.003,11.48,22.968,37.783,8.979,54.99c-1.906,2.343-3.237,6.592-2.543,9.389
		c5.654,22.764,11.889,45.383,17.854,68.071c1.056,4.015,2.747,6.215,7.314,7.582c23.204,6.94,34.838,35.217,23.433,56.582
		c-1.91,3.579-5.715,6.146-8.645,9.181c-0.766-0.335-1.532-0.67-2.299-1.005c-1.056-7.552-1.869-15.15-3.22-22.65
		c-2.222-12.353-11.47-18.631-22.099-15.357c-10.169,3.133-14.26,13.093-9.989,24.587c1.262,3.397,2.824,6.683,4.25,10.02
		c1.401,3.278,2.805,6.558,4.207,9.837C238.003,256.093,237.497,257.058,236.99,258.021z"/>
</g>
<g id="New_Symbol_10">
</g>
<g id="New_Symbol_13">
</g>
<g id="New_Symbol_12">
</g>
</svg>
