<?xml version="1.0" encoding="utf-8"?>
<!-- Generator: Adobe Illustrator 16.0.0, SVG Export Plug-In . SVG Version: 6.00 Build 0)  -->
<svg version="1.2" baseProfile="tiny" id="Layer_1" xmlns="http://www.w3.org/2000/svg" xmlns:xlink="http://www.w3.org/1999/xlink"
	 x="0px" y="0px" width="300px" height="300px" viewBox="0 0 300 300" xml:space="preserve">
<g id="New_Symbol_7">
</g>
<g id="New_Symbol_11">
</g>
<g id="New_Symbol_16">
</g>
<g id="New_Symbol_15">
	<path fill-rule="evenodd" fill="#FFFFFF" d="M259.303,133.276c0,35.975,0,72.63,0,110.049c5.829,0,11.385,0,17.34,0
		c0,5.292,0,9.831,0,14.914c-82.597,0-165.283,0-248.311,0c0-4.629,0-9.146,0-14.486c5.786,0,11.358,0,17.332,0
		c0-37.654,0-74.494,0-110.611c5.811-3.327,11.002-6.299,15.247-8.73c6.473,2.396,12.912,6.61,19.373,6.646
		c6.219,0.033,12.46-4.258,19.041-6.781c-0.115,0.602-0.06,2.547-0.842,4.058c-7.709,14.886-13.516,30.837-25.767,43.153
		c-2.737,2.753-4.249,7.997-4.177,12.057c0.317,17.865,1.419,35.716,2.249,53.57c0.039,0.837-0.061,1.825,0.339,2.478
		c4.534,7.413,11.786,3.469,17.85,3.895c4.235,0.297,6.184-2.951,6.087-7.2c-0.063-2.708-0.012-5.42-0.012-8.003
		c38.23,0,76.056,0,114.865,0c0,1.764-0.046,3.985,0.014,6.204c0.045,1.678-0.317,3.66,0.434,4.976
		c4.334,7.598,11.689,3.578,17.744,4.038c4.237,0.323,6.017-2.831,6.188-7.107c0.682-17.019,2.028-34.027,2.065-51.042
		c0.011-5.174-2.044-11.63-5.491-15.302c-11.875-12.645-17.352-28.726-25.302-43.471c-0.468-0.866-0.062-2.204-0.062-2.489
		c6.431,2.563,12.411,6.018,18.815,7.217c7.314,1.37,13.305-2.903,17.858-8.022C247.669,126.485,253.009,129.603,259.303,133.276z"
		/>
	<path fill-rule="evenodd" fill="#FFFFFF" d="M45.905,66.075c0-5.389-0.251-10.438,0.064-15.451
		c0.385-6.119,4.334-9.832,10.61-10.412c2.511-0.231,5.052-0.183,7.578-0.183c58.806-0.01,117.611-0.009,176.417-0.006
		c16.383,0,18.621,2.237,18.624,18.577c0,2.308,0,4.617,0,7.475C188.173,66.075,117.498,66.075,45.905,66.075z"/>
	<path fill-rule="evenodd" fill="#FFFFFF" d="M98.718,150.558c2.766-5.967,5.203-11.744,8.172-17.235
		c0.675-1.248,3.125-1.794,4.863-2.162c5.404-1.146,11.049-1.486,16.239-3.219c4.577-1.527,8.439-2.662,12.964,0.209
		c7.589,4.817,15.595,4.859,23.16-0.08c4.289-2.801,8.048-1.73,12.418-0.397c5.447,1.661,11.218,2.24,16.805,3.487
		c1.727,0.386,4.133,0.977,4.813,2.237c2.967,5.489,5.412,11.26,8.153,17.16C170.392,150.558,134.968,150.558,98.718,150.558z"/>
	<path fill-rule="evenodd" fill="#FFFFFF" d="M140.502,74.958c8.356,0,15.847,0,23.976,0c0.714,11.081,1.776,21.911,2,32.759
		c0.196,9.584-5.972,15.939-14.208,15.789c-8.224-0.152-14.275-6.673-13.979-16.118C138.627,96.716,139.711,86.066,140.502,74.958z"
		/>
	<path fill-rule="evenodd" fill="#FFFFFF" d="M204.76,74.673c6.981,0,13.671-0.064,20.355,0.066
		c1.054,0.021,2.752,0.685,3.033,1.458c3.758,10.343,8.556,20.527,10.547,31.226c1.691,9.083-5.559,16.033-13.642,16.099
		c-8.216,0.065-13.458-6.4-14.525-15.73c-1.139-9.934-3.558-19.72-5.396-29.574C204.949,77.229,204.917,76.214,204.76,74.673z"/>
	<path fill-rule="evenodd" fill="#FFFFFF" d="M172.791,74.921c7.871,0,15.383,0,24.141,0c1.883,11.214,4.384,22.448,5.476,33.817
		c0.813,8.468-5.856,14.791-13.682,14.777c-7.866-0.014-13.735-6.242-14.107-14.643C174.126,97.762,173.433,86.658,172.791,74.921z"
		/>
	<path fill-rule="evenodd" fill="#FFFFFF" d="M107.794,74.92c9.046,0,16.554,0,24.299,0c-0.627,12.336-1.012,24.428-1.942,36.477
		c-0.541,7.002-7.655,12.494-14.601,12.079c-7.029-0.42-13.5-5.958-12.896-12.882C103.699,98.605,106.022,86.73,107.794,74.92z"/>
	<path fill-rule="evenodd" fill="#FFFFFF" d="M68.604,75.033c-2.116,5.112-4.348,9.441-5.703,14.029
		c-1.99,6.736-3.836,13.589-4.858,20.521c-1.151,7.811-6.419,13.69-13.776,13.926c-7.427,0.236-13.769-5.038-14.153-13.116
		c-0.216-4.539,1.484-9.23,2.713-13.747c0.532-1.958,2.045-3.652,3.123-5.459C46.603,73.326,46.603,73.327,68.604,75.033z"/>
	<path fill-rule="evenodd" fill="#FFFFFF" d="M100.579,74.671c-1.396,5.807-2.764,10.639-3.684,15.553
		c-1.15,6.145-2.269,12.331-2.79,18.551c-0.727,8.662-6.199,14.73-14.021,14.742c-8.015,0.014-13.959-6.409-14.169-15.264
		c-0.288-12.129,7.185-21.627,11.059-32.34c0.257-0.709,2.098-1.17,3.211-1.188C86.671,74.613,93.161,74.671,100.579,74.671z"/>
	<path fill-rule="evenodd" fill="#FFFFFF" d="M236.356,74.924c8.468,0.453,16.037,0.857,23.605,1.263
		c4.996,11.478,16.361,20.189,14.917,34.473c-0.701,6.931-5.691,12.065-12.57,12.773c-6.543,0.674-14.381-3.737-14.458-10.302
		C247.691,99.37,241.222,87.843,236.356,74.924z"/>
	<path fill-rule="evenodd" fill="#FFFFFF" d="M119.711,183.565c22.031,0,43.262,0,64.575,0
		C174.67,201.568,138.003,207.338,119.711,183.565z"/>
	<path fill-rule="evenodd" fill="#FFFFFF" d="M99.783,181.975c-0.056,5.093-4.202,9.155-9.322,9.13
		c-5.124-0.023-9.229-4.123-9.228-9.218c0.001-4.939,4.399-9.328,9.307-9.288C95.465,172.64,99.836,177.073,99.783,181.975z"/>
	<path fill-rule="evenodd" fill="#FFFFFF" d="M223.7,182.007c-0.056,5.086-4.225,9.165-9.329,9.126
		c-5.086-0.036-9.193-4.194-9.17-9.283c0.022-4.975,4.394-9.314,9.318-9.253C219.482,172.659,223.756,177.039,223.7,182.007z"/>
	<rect x="118.445" y="183.565" fill-rule="evenodd" fill="#FFFFFF" width="67.321" height="15.74"/>
</g>
<g id="New_Symbol_8">
</g>
<g id="New_Symbol_5">
</g>
<g id="New_Symbol_10">
</g>
<g id="New_Symbol_13">
</g>
<g id="New_Symbol_12">
</g>
</svg>
