<?xml version="1.0" encoding="utf-8"?>
<!-- Generator: Adobe Illustrator 16.0.0, SVG Export Plug-In . SVG Version: 6.00 Build 0)  -->
<svg version="1.2" baseProfile="tiny" id="Layer_1" xmlns="http://www.w3.org/2000/svg" xmlns:xlink="http://www.w3.org/1999/xlink"
	 x="0px" y="0px" width="300px" height="300px" viewBox="0 0 300 300" xml:space="preserve">
<g id="New_Symbol_7">
</g>
<g id="New_Symbol_11">
</g>
<g id="New_Symbol_16">
	<path fill-rule="evenodd" fill="#FFFFFF" d="M262.942,216.129c-21.025,0-41.487,0-62.322,0c0-50.092,0-99.826,0-150.102
		c20.739,0,41.35,0,62.322,0C262.942,115.983,262.942,165.726,262.942,216.129z"/>
	<path fill-rule="evenodd" fill="#FFFFFF" d="M49.746,103.656c20.813,0,41.074,0,61.717,0c0,37.609,0,74.844,0,112.442
		c-20.632,0-40.89,0-61.717,0C49.746,178.704,49.746,141.48,49.746,103.656z"/>
	<path fill-rule="evenodd" fill="#FFFFFF" d="M275.431,228.991c0,4.803,0,8.306,0,12.263c-83.62,0-166.979,0-250.861,0
		c0-62.596,0-125.114,0-188.09c3.637,0,7.297,0,11.596,0c0,58.399,0,116.711,0,175.827
		C116.083,228.991,195.388,228.991,275.431,228.991z"/>
	<path fill-rule="evenodd" fill="#FFFFFF" d="M187.216,141.422c0,25.146,0,49.666,0,74.615c-20.732,0-41.137,0-61.971,0
		c0-24.891,0-49.551,0-74.615C145.899,141.422,166.332,141.422,187.216,141.422z"/>
</g>
<g id="New_Symbol_15">
</g>
<g id="New_Symbol_8">
</g>
<g id="New_Symbol_5">
</g>
<g id="New_Symbol_10">
</g>
<g id="New_Symbol_13">
</g>
<g id="New_Symbol_12">
</g>
</svg>
