<?xml version="1.0" encoding="utf-8"?>
<!-- Generator: Adobe Illustrator 16.0.0, SVG Export Plug-In . SVG Version: 6.00 Build 0)  -->
<svg version="1.2" baseProfile="tiny" id="Layer_1" xmlns="http://www.w3.org/2000/svg" xmlns:xlink="http://www.w3.org/1999/xlink"
	 x="0px" y="0px" width="300px" height="300px" viewBox="0 0 300 300" xml:space="preserve">
<g id="New_Symbol_7">
</g>
<g id="New_Symbol_11">
</g>
<g id="New_Symbol_16">
</g>
<g id="New_Symbol_15">
</g>
<g id="New_Symbol_8">
</g>
<g>
	<path fill-rule="evenodd" fill="#FFFFFF" d="M52.411,108.062c0-11.102,0.11-22.224-0.04-33.323
		c-0.082-8.162,3.685-11.987,11.8-12.279c30.281-1.061,57.653-9.543,80.523-30.875c2.664-2.495,11.695-2.413,14.431,0.152
		c22.578,20.952,49.513,29.453,79.351,30.688c6.862,0.269,12.652,2.064,12.682,10.075c0.063,37.323,3.373,74.857-8.432,111.352
		c-14.085,43.469-45.037,69.249-86.289,84.104c-3.656,1.305-8.845,0.035-12.815-1.423c-59.472-21.967-87.495-66.695-90.971-128.854
		c-0.548-9.84-0.07-19.752-0.07-29.616C52.521,108.062,52.476,108.062,52.411,108.062z M72.368,81.722
		c0,23.437-1.552,46.453,0.327,69.202c3.835,46.441,28.623,78.307,71.317,95.88c3.754,1.527,8.955,2.554,12.491,1.19
		c25.865-9.9,47.447-25.408,60.843-50.57c19.45-36.554,16.202-76.117,15.789-115.469c-2.997-0.781-4.91-1.562-6.881-1.761
		c-25.685-2.6-49.11-10.786-69.889-26.712c-2.203-1.703-8.022-0.205-11.38,1.457c-11.65,5.712-22.457,13.501-34.537,17.955
		C98.036,77.454,84.554,79.028,72.368,81.722z"/>
	<path fill-rule="evenodd" fill="#FFFFFF" d="M142.467,162.147c16.512-15.222,31.139-28.715,45.778-42.204
		c5.823-5.381,11.519-13.584,20.153-5.492c8.32,7.782,2.28,14.703-3.48,20.767c-15.717,16.534-31.686,32.812-47.235,49.485
		c-8.418,9.048-15.845,8.582-23.866-0.35c-6.961-7.778-15.368-14.494-21.169-23.018c-2.92-4.313-6.274-13.419-1.976-17.595
		c4.116-3.999,12.603-0.431,16.812,2.473C133.957,150.632,138.566,157.803,142.467,162.147z"/>
</g>
<g id="New_Symbol_5">
</g>
<g id="New_Symbol_10">
</g>
<g id="New_Symbol_13">
</g>
<g id="New_Symbol_12">
</g>
</svg>
